<?xml version="1.0" ?><svg width="512px" height="512px" viewBox="0 0 512 512" xmlns="http://www.w3.org/2000/svg"><defs><style>.e{fill:#fcd17a;}.f{fill:#2f8474;}.g{fill:#bebebe;}.h{fill:#dfdfdf;}.i{fill:#41a08e;}.j{fill:#365650;}.k{fill:#6e6e6e;}</style></defs><g id="a"/><g id="b"/><g id="c"><g><polygon class="k" points="170.77344 129.91602 129.38428 192 192 165.16455 170.77344 129.91602"/><path class="i" d="M121.61279,237.24561c-10.04199-.97461-20.11475,1.51831-28.54321,7.06348h-.00024c-20.354,13.3916-38.02417,30.47144-52.09888,50.35913l-3.24194,4.58105,6.63623,.32642c31.42554,1.5459,62.37451-8.15088,87.2998-27.35254h0c4.54175-3.49902,7.32056-8.81348,7.60229-14.53979h0c.51318-10.43237-7.25781-19.42896-17.65405-20.43774Z"/><path class="i" d="M176.52832,386.63379l-3.80176-16.60986c-2.10742-9.20703-11.57324-14.7019-20.61328-11.96606-4.13843,1.25244-7.60962,4.09741-9.65039,7.90918l-7.6814,14.34839c-3.39111,6.33447-4.1272,13.75635-2.0459,20.6333,2.49097,8.23169,3.54858,16.83032,3.12598,25.42017-.47705,9.69458-2.83032,19.20435-6.92969,28.00269l-13.85181,29.72876,29.12964-18.59082c14.88794-9.50146,25.88599-24.01538,31.0061-40.91821h0c3.73291-12.32275,4.1853-25.40649,1.3125-37.95752Z"/><path class="i" d="M115.58472,402.15918c-2.97388-9.82666-13.35059-15.38184-23.17725-12.40796h0c-17.84692,5.40112-31.81372,19.36401-37.21948,37.20972h0c-4.53174,14.95996-4.9126,30.87036-1.10156,46.02979l3.72461,14.81641,22.55615-35.00293c2.57861-4.00146,6.13428-7.27954,10.33154-9.52515,11.99072-6.41528,20.94189-17.33105,24.88452-30.34595h0c1.06396-3.51245,1.06445-7.26123,.00146-10.77393Z"/><path class="i" d="M110.16357,331.6748h0c-2.08276-4.72998-5.95898-8.43872-10.77637-10.31055h0c-14.57422-5.66309-31.09717-2.60571-42.68018,7.89722l-3.35278,3.04028-8.44946,15.01709c-9.82227,17.45679-16.60449,36.45654-20.05664,56.18701l-.68677,3.92554,31.03052-28.13745c1.56494-1.4187,3.19189-2.76733,4.87622-4.04175,7.12598-5.39136,15.2019-9.39551,23.80713-11.80396l12.56836-3.51758c4.36328-1.22119,8.16479-3.9248,10.75024-7.64551l1.13794-1.6377c3.87329-5.57349,4.56714-12.76099,1.83179-18.97266Z"/><path class="g" d="M261.20385,176.71151l13.52925,12.95178c23.25643,22.26378,60.43972,20.42508,81.3862-4.02451l80.0739-93.46557-3.19221-10.10751c-1.84486-5.98754-4.06938-11.97726-6.69107-17.94889l-10.58787-24.11683s-71.85991,81.44124-104.36202,118.27829c-8.87374,10.05726-21.21323,16.2769-34.57201,17.49946l-15.58416,.93376Z"/><path class="h" d="M320,304l-.50366-2.14551c110.33398,2.46802,194.98364-112.65015,147.09155-221.73779l-10.58789-24.1167s-71.85986,81.44116-104.36206,118.27832c-9.94409,11.27051-24.24097,17.72168-39.44702,17.72168h-.75781c-22.58374,0-41.68604-16.70312-44.69897-39.08472l-.12329-.91528c3.45557-7.27393,5.38916-15.41113,5.38916-24,0-31.80493-26.51416-57.41724-58.64478-55.93896-28.44971,1.30859-51.64233,24.22827-53.26172,52.66187-1.35083,23.71802,12.06763,44.46362,31.90649,53.88794-23.19507,40.2373-14.4519,91.2876,20.81079,121.5127l51.18921,43.87646,4.84033,29.0415c7.25781,43.54834,27.94165,83.74023,59.15967,114.9585,49.90747-9.98145,91.39746-44.49365,110.29956-91.74902l1.70044-4.25098-31.10132-4.78491c-43.95312-6.76196-79.25171-39.80396-88.89868-83.21509Z"/><rect class="k" height="8" width="16" x="192" y="116"/><path class="g" d="M392,420c-31.05957,0-59.72363-16.86621-74.80762-44.01758l-16.68945-30.04004,6.99414-3.88477,16.68945,30.04004c13.67285,24.6123,39.6582,39.90234,67.81348,39.90234v8Z"/><path class="g" d="M359.21582,451.92188c-26.37695-5.27539-48.08887-23.33594-58.0791-48.31152l-16.85059-42.125,7.42773-2.9707,16.85059,42.125c8.98242,22.45605,28.50391,38.69434,52.21973,43.43848l-1.56836,7.84375Z"/><path class="g" d="M335.13184,283.9043l-16.77832-3.72852c-34.64551-7.69824-61.29492-36.47656-66.31348-71.61035l7.91992-1.13086c4.55078,31.85645,28.71484,57.95117,60.12988,64.93262l16.77832,3.72852-1.73633,7.80859Z"/><path class="g" d="M371.77246,258.71191c-20.93457,0-41.25879-9.91113-54.21973-28.05664l-8.80762-12.33008,6.50977-4.65039,8.80762,12.33008c16.92285,23.69141,48.10645,31.43652,74.14844,18.41699l3.57812,7.15625c-9.63867,4.81934-19.89941,7.13379-30.0166,7.13379Z"/><path class="g" d="M389.07129,212.54492c-11.64844,0-23.41602-2.34082-34.6416-7.15137l-4.00586-1.7168,3.15234-7.35352,4.00488,1.7168c30.07227,12.88965,64.45508,6.26855,87.59082-16.86816l5.65625,5.65625c-16.82617,16.82617-39.06055,25.7168-61.75684,25.7168Z"/><path class="g" d="M403.29688,165.11914c-4.00879,0-8.05176-.39062-12.08105-1.19727l1.56836-7.84375c22.27539,4.45215,45.08789-5.63867,56.77344-25.11426l3.0127-5.02148,6.85938,4.11523-3.0127,5.02148c-11.30664,18.84473-31.68652,30.04004-53.12012,30.04004Z"/><path class="e" d="M283.47266,88.56641c-3.24414-22.68555-21.35352-40.79492-44.03906-44.03906l1.13281-7.91992c26.18066,3.74512,47.08105,24.64551,50.82617,50.82617l-7.91992,1.13281Z"/><path class="e" d="M306.41406,57.14062c-3.70117-12.43457-11.8877-22.98828-23.05176-29.71582l4.12891-6.85156c12.87598,7.75879,22.31934,19.93457,26.59082,34.28613l-7.66797,2.28125Z"/><path class="e" d="M401.48633,323.27832c-.35449,0-.70605-.00293-1.06055-.00977l.14258-7.99805c22.95703,.41113,43.67676-14.58203,50.49316-36.45996l7.63867,2.37891c-7.7627,24.91113-31.19336,42.08887-57.21387,42.08887Z"/><path class="e" d="M428.96973,350.8584l-1.03125-7.93359c12.86523-1.67188,24.58789-8.07324,33.00781-18.02246l6.10742,5.16797c-9.71094,11.47559-23.23633,18.85742-38.08398,20.78809Z"/><path class="e" d="M286.71973,487.0166c-17.64453-5.96094-31.72461-20.07031-37.66309-37.74219l7.58398-2.54883c5.14648,15.31738,17.34863,27.5459,32.63965,32.71094l-2.56055,7.58008Z"/><path class="e" d="M241.74512,499.04883c-9.49707-8.06348-16.16309-18.66602-19.27734-30.66113l7.74414-2.00977c2.69727,10.3916,8.47559,19.58105,16.71094,26.57324l-5.17773,6.09766Z"/><path class="e" d="M55.58691,238.76758l-7.96289-.77734c2.56836-26.32324,22.51074-48.13965,48.49707-53.05371l1.48633,7.86133c-22.5166,4.25781-39.7959,23.16113-42.02051,45.96973Z"/><path class="e" d="M36.53418,195.64844l-7.03125-3.81641c7.17285-13.21094,18.91309-23.19043,33.05957-28.10059l2.62305,7.55664c-12.25781,4.25586-22.43262,12.90625-28.65137,24.36035Z"/><path class="i" d="M215.05396,259.65723l-5.19653-6.31372c-4.96045-6.02661-12.56958-9.22461-20.3457-8.55127h0c-13.04199,1.12915-22.69922,12.61719-21.56982,25.65918,.69287,8.00195,4.2981,15.47119,10.13208,20.9917,8.15088,7.71265,12.79004,18.4248,12.83911,29.64624l.32202,73.78784,29.4856-46.9895c7.33936-11.69678,11.33545-25.18018,11.55396-38.9873h0c.28394-17.93774-5.81982-35.39185-17.2207-49.24316Z"/><path class="f" d="M172.94922,251.3457l-18.30957-12.20703c-3.80127-47.05566-23.23633-92.79541-57.5332-129.06055l-5.8125,5.49609c30.02686,31.74976,48.2168,71.04614,54.01245,111.97705l-5.92847,5.60693c-20.17969,19.08398-43.48438,33.99121-69.27051,44.30859l-.36328,.14551,2.97461,7.42578,.3623-.14453c26.72363-10.69238,50.87891-26.14355,71.79395-45.92285l1.5896-1.50342c2.74829,29.80518-1.03125,60.21631-11.55542,88.99268l-19.71973,.93945c-26.90039,1.28125-51.16797,15.87207-64.91699,39.03027l6.87891,4.08398c12.37305-20.83984,34.21191-33.9707,58.41895-35.12402l16.15625-.76978c-4.45752,10.73755-9.87354,21.21265-16.27051,31.302l-47.3916,74.74512,6.75586,4.2832,47.3916-74.74512c4.38428-6.91455,8.31689-14.00635,11.82251-21.23267l5.65698,12.85864c8.74805,19.88281,12.26367,41.82031,10.16504,63.44043l7.96289,.77344c2.23047-22.98242-1.50684-46.30176-10.80566-67.43555l-8.53735-19.40527c12.24951-28.87134,17.76196-59.62158,16.73926-90.06689l13.30396,8.86963c24.37598,16.16699,38.65234,43.27832,38.18945,72.52344l7.99805,.12695c.50684-31.98535-15.10645-61.63574-41.75781-79.31152Z"/><path class="k" d="M134.35303,184.54688c.57275,1.53149,1.12988,3.06738,1.66504,4.61011l7.36865-3.15796c-1.12549-3.21753-2.33203-6.41113-3.61523-9.57983l-5.41846,8.12769Z"/><path class="j" d="M470.25098,78.50879l-10.58789-24.11719c-.5498-1.25-1.69824-2.13379-3.04688-2.34375-1.35254-.21191-2.71191,.2832-3.61523,1.30566l-18.40723,20.86182c-1.39648-3.93652-2.93066-7.85498-4.62207-11.70654l-10.58789-24.11719c-.54883-1.25-1.69727-2.13379-3.0459-2.34375-1.35352-.21094-2.71191,.2832-3.61523,1.30566l-104.36133,118.27832c-7.71533,8.74414-18.2207,14.34058-29.77051,15.9126-4.07593-5.40527-6.86572-11.8562-7.85938-18.92334,3.49707-7.75488,5.26855-16.03125,5.26855-24.62109,0-16.5498-6.59375-31.96191-18.56543-43.39551-11.96582-11.42676-27.67969-17.30078-44.2627-16.54004-14.75195,.67969-28.71582,6.82715-39.32129,17.31055-10.60742,10.48633-16.91113,24.37988-17.75,39.12012-.34766,6.09985,.22876,12.08081,1.61865,17.79077l-19.82031,29.73047c-9.85498-22.88916-23.54541-43.70142-40.79248-61.93823l-5.8125,5.49609c17.80713,18.82959,31.67578,40.50635,41.26929,64.4458l-6.50757,9.76123c-.98242,1.47266-.87891,3.41602,.25293,4.77637,.77734,.93555,1.91406,1.44238,3.07617,1.44238,.53027,0,1.06543-.10547,1.57422-.32324l6.29614-2.69824c3.65161,11.26514,6.3313,22.87256,7.98853,34.63184l-5.86572,5.54785c-1.74707,1.6521-3.52588,3.26123-5.31934,4.85059-3.38452-2.59375-7.50928-4.30273-12.05957-4.74414-10.91699-1.05859-21.96973,1.67773-31.12793,7.70312-20.85645,13.7207-38.74316,31.01074-53.16504,51.38965l-3.24219,4.58105c-.84375,1.19141-.9707,2.74805-.33203,4.06055,.63867,1.31348,1.94238,2.17383,3.40039,2.24512l6.63574,.32617c2.23242,.11035,4.46094,.16406,6.6875,.16406,30.03223,0,59.36719-9.94336,83.25098-28.34277,5.47852-4.2207,8.81641-10.60352,9.15527-17.51172,.25342-5.14062-1.15625-9.98438-3.76562-14.00024,1.81299-1.60913,3.61182-3.23779,5.37891-4.90894l1.51099-1.4292c1.26392,13.71729,1.17725,27.55591-.32446,41.20654-1.81274,16.47583-5.55396,32.41479-11.14282,47.71143l-19.72925,.93994c-.89014,.04248-1.7771,.10156-2.66113,.17285-2.66504-4.52026-6.72559-8.00635-11.69141-9.93652-16.09082-6.25-34.03027-2.93262-46.81641,8.66309l-3.35254,3.04004c-.31934,.28809-.58887,.62695-.7998,1.00098l-8.4502,15.01855c-10.06934,17.89746-16.96973,37.22949-20.50977,57.45703l-.6875,3.92578c-.29395,1.68359,.5127,3.36816,2.00977,4.19336,.60547,.33398,1.26953,.49707,1.92969,.49707,.97168,0,1.93457-.35352,2.6875-1.03711l31.03223-28.1377c1.46973-1.33301,3.01855-2.61719,4.60156-3.81543,6.75391-5.10938,14.31445-8.8584,22.47168-11.1416l12.56836-3.5166c5.24609-1.46777,9.84766-4.74023,12.95801-9.21582l1.1377-1.6377c3.56201-5.12524,4.87598-11.48584,3.81274-17.53125,.04688-.0022,.09351-.00659,.14038-.00879l16.18262-.771c-4.4834,10.79297-9.91846,21.24316-16.29688,31.30322l-12.45898,19.65039c-3.7583-.89746-7.79224-.84814-11.74902,.35059-19.16992,5.80176-34.08203,20.70996-39.88867,39.87891-4.74023,15.65039-5.13867,32.30566-1.15137,48.16504l3.72461,14.81543c.3877,1.54492,1.65723,2.71289,3.22949,2.97168,.21777,.03516,.43457,.05273,.65039,.05273,1.34375,0,2.61719-.67871,3.36133-1.83301l22.55566-35.00293c2.20508-3.42188,5.2666-6.24512,8.85547-8.16406,13.01855-6.96484,22.5459-18.58301,26.82617-32.71387,1.29785-4.28027,1.29785-8.80762,.00293-13.0918l-.00098-.00098c-1.56592-5.17358-4.83374-9.37451-9.00415-12.17969l11.80298-18.61523c4.37207-6.89551,8.3186-13.96729,11.83643-21.20117l5.64307,12.82715c.08472,.19263,.16089,.38843,.24463,.5813-.35596,.53687-.69141,1.09155-.99951,1.66675l-7.68164,14.34863c-3.91992,7.32129-4.75293,15.73145-2.34766,23.68066,2.36426,7.81445,3.36035,15.91016,2.95898,24.06445-.45312,9.2207-2.66016,18.13965-6.56055,26.50879l-13.85156,29.72949c-.75098,1.6123-.34766,3.52637,.99023,4.69824,.74902,.65625,1.69043,.99121,2.63672,.99121,.74414,0,1.49121-.20703,2.15137-.62793l29.12988-18.59082c15.68164-10.00977,27.28906-25.32715,32.68164-43.13086,3.92871-12.9668,4.40723-26.80176,1.38379-40.00977l-3.80176-16.60938c-1.25098-5.46484-4.74902-10.21387-9.59863-13.02832-4.84668-2.81445-10.7041-3.49707-16.07324-1.87402-1.74658,.52881-3.37695,1.29297-4.88477,2.2334l-7.58447-17.23926c8.03418-18.91162,13.24609-38.84888,15.52881-59.60059,1.11328-10.11938,1.47412-20.33887,1.11914-30.54102l11.35303,7.56909c-2.01245,4.27295-2.96558,9.11084-2.52979,14.14575,.7793,8.9873,4.81641,17.35156,11.36914,23.55176,7.32031,6.92676,11.54395,16.67969,11.58789,26.75781l.32227,73.78809c.00781,1.7793,1.19043,3.34082,2.90234,3.8291,.36328,.10352,.73242,.15332,1.09766,.15332,1.35156,0,2.64355-.68652,3.38867-1.87402l29.48535-46.98926c7.72754-12.31543,11.93457-26.51074,12.16406-41.0498,.2998-18.86719-6.13965-37.28027-18.13086-51.84863l-5.19629-6.31348c-5.7998-7.0459-14.69043-10.78027-23.7793-9.99512h-.00098c-7.31787,.63403-13.72632,4.0791-18.26709,9.17212l-16.3457-10.89771c-1.36499-16.75024-4.69702-33.34302-9.91943-49.26489l34.23047-14.66968c2.39697,1.88281,4.95044,3.60352,7.65918,5.12891-7.7168,14.77051-11.6543,31.24902-11.41992,47.91992l8-.11328c-.23438-16.62207,4.04004-33.03809,12.3623-47.47266,.55664-.9668,.68555-2.12305,.35254-3.18848-.33203-1.06543-1.09375-1.94336-2.10156-2.42285-19.21094-9.12598-30.84082-28.77148-29.62988-50.04785,1.49316-26.20898,23.21484-47.68652,49.45215-48.89355,14.38477-.65723,28.00098,4.42969,38.37012,14.33301,10.37598,9.91016,16.09082,23.2666,16.09082,37.61035,0,7.79883-1.68262,15.2959-5.00195,22.28418-.33203,.69922-.4541,1.48145-.35059,2.24902l.12305,.91504c3.26465,24.25879,24.18555,42.55176,48.66211,42.55176h.75879c16.27832,0,31.75-6.95312,42.44531-19.0752l100.21875-113.58203,8.07031,18.38281c12.36621,28.16797,16.22754,58.52637,11.16699,87.79297-4.74805,27.45215-17.08105,53.3291-35.66699,74.83301-18.58496,21.50391-42.40332,37.4541-68.87988,46.12695-28.22559,9.24707-58.82324,9.82031-88.48535,1.66504l-2.12109,7.71289c12.36816,3.40186,24.89233,5.34131,37.36035,5.85547,5.00732,21.74902,16.24194,41.29395,32.55078,56.55957,16.52051,15.46387,37.07422,25.45605,59.43945,28.89648l26.12598,4.01953c-18.27637,45.29004-57.43652,78.20508-105.10156,88.45508-29.95215-30.56543-49.4834-68.98926-56.5293-111.25879l-4.83984-29.04102c-.1543-.92676-.62891-1.76855-1.3418-2.37988l-16.11133-13.80957-5.20703,6.07422,15.00781,12.86328,4.60156,27.60742c7.43945,44.63281,28.2832,85.13574,60.27734,117.12988,.75684,.75781,1.77734,1.17188,2.82812,1.17188,.26074,0,.52344-.02539,.78418-.07812,51.42383-10.28418,93.75293-45.49414,113.22949-94.18555l1.7002-4.25098c.45312-1.13281,.36426-2.40918-.24023-3.46875s-1.66016-1.78418-2.86523-1.96973l-31.10156-4.78516c-20.7666-3.19531-39.85059-12.47266-55.18945-26.83105-14.65698-13.71997-24.89648-31.1626-29.75586-50.58105,16.16284-.15991,32.14893-2.74805,47.47461-7.76855,27.85645-9.125,52.90723-25.89551,72.44238-48.49805,19.53516-22.60352,32.50195-49.81738,37.49707-78.70117,5.3291-30.81934,1.27539-62.76074-11.72461-92.37305ZM135.27148,257.4873c-.22461,4.5625-2.42871,8.7793-6.04883,11.56738-23.97656,18.4707-53.79785,27.89062-84.00977,26.55566,13.6709-18.96777,30.50391-35.09668,50.05469-47.95898,7.63867-5.02637,16.8584-7.31055,25.95898-6.42383,2.39355,.23218,4.60107,1.00684,6.53394,2.17261-17.34497,14.24414-36.67798,25.67407-57.65308,34.06665l-.36328,.14551,2.97461,7.42578,.3623-.14453c21.9397-8.77832,42.14404-20.77026,60.24976-35.7251,1.36499,2.45776,2.08887,5.30859,1.94067,8.31885Zm-30.22461,90.87793l-1.13672,1.63672c-2.05078,2.95117-5.08594,5.10938-8.54492,6.07715l-12.56836,3.51758c-9.12598,2.55371-17.58496,6.74805-25.1416,12.46484-1.77246,1.34082-3.50488,2.77734-5.14941,4.26953l-22.17773,20.10938c3.67285-16.52441,9.73242-32.35547,18.0625-47.15918l8.13184-14.45215,2.87109-2.60449c10.52832-9.54492,25.29883-12.27832,38.54492-7.13184,2.14429,.83325,4.02393,2.11621,5.56836,3.73047-22.1333,4.34692-41.50952,17.85767-53.23438,37.60645l6.87891,4.08398c10.97266-18.48145,29.39209-30.89185,50.30347-34.27051,.88965,4.15112,.05151,8.58276-2.40796,12.12207Zm6.70996,54.95312c.83594,2.7666,.83594,5.69043-.00195,8.45508-3.66113,12.08594-11.80859,22.02246-22.94336,27.97852-4.78516,2.55957-8.86816,6.32422-11.80664,10.88574l-17.56152,27.25293-1.47754-5.875c-3.63379-14.45312-3.27051-29.63184,1.0498-43.89453,5.03027-16.60352,17.94629-29.5166,34.5498-34.54199,1.4043-.4248,2.82129-.62598,4.21777-.62598,.17432,0,.34692,.01465,.52051,.021l-30.23926,47.69287,6.75586,4.2832,31.30005-49.36572c2.60571,1.81055,4.64795,4.46875,5.63647,7.73389Zm41.51465-41.43262c3.29883-.99805,6.75684-.5957,9.74023,1.13574,2.98145,1.73145,5.04688,4.53516,5.81543,7.89551l3.80176,16.60938c2.71387,11.85254,2.28418,24.26855-1.24121,35.90527-4.83984,15.97754-15.25586,29.72363-29.33008,38.70605l-17.55078,11.20117,8.05078-17.27832c4.33887-9.31152,6.79492-19.23535,7.29883-29.49512,.44629-9.07129-.66113-18.08008-3.29297-26.77441-1.78613-5.90332-1.16699-12.14941,1.74414-17.58789l5.38086-10.05054c5.77246,17.02246,7.90942,35.17798,6.16797,53.1189l7.96289,.77344c2.04272-21.04785-.93481-42.37329-8.59082-62.04883,1.18994-.93604,2.55078-1.65845,4.04297-2.11035Zm36.58594-113.1084c6.47266-.56445,12.78809,2.09863,16.91113,7.1084l5.19727,6.31348c10.78613,13.10449,16.57812,29.66699,16.30957,46.6377-.20801,13.07812-3.99121,25.84668-10.94336,36.9248l-22.15723,35.31152-.26172-60.00195c-.05371-12.25293-5.18848-24.11133-14.08984-32.5332-5.12793-4.85254-8.28711-11.39844-8.89648-18.43164-.26709-3.08521,.21606-6.05884,1.26489-8.76904,21.51416,16.41284,33.94971,41.87012,33.51733,69.19287l7.99805,.12695c.47705-30.10229-13.32715-58.13281-37.16968-76.06348,3.177-3.229,7.46387-5.39575,12.32007-5.81641Zm-28.92261-96.89307c2.76465,6.39355,6.62988,12.26245,11.43652,17.34106l-32.19556,13.7981,20.75903-31.13916Zm187.70386,19.74756c-9.17871,10.40234-22.46289,16.36816-36.44727,16.36816h-.75879c-9.89111,0-19.08203-3.57593-26.25757-9.55176,11.27197-2.67896,21.43384-8.73877,29.18433-17.52344l100.21777-113.58203,8.07031,18.38281c2.21924,5.05566,4.17041,10.22754,5.8457,15.40381l-79.85449,90.50244Z"/><rect class="j" height="8" width="16" x="192" y="116"/><path class="j" d="M392,420v-8c-28.15527,0-54.14062-15.29004-67.81348-39.90234l-16.68945-30.04004-6.99414,3.88477,16.68945,30.04004c15.08398,27.15137,43.74805,44.01758,74.80762,44.01758Z"/><path class="j" d="M284.28613,361.48535l16.85059,42.125c9.99023,24.97559,31.70215,43.03613,58.0791,48.31152l1.56836-7.84375c-23.71582-4.74414-43.2373-20.98242-52.21973-43.43848l-16.85059-42.125-7.42773,2.9707Z"/><path class="j" d="M259.95996,207.43457l-7.91992,1.13086c5.01855,35.13379,31.66797,63.91211,66.31348,71.61035l16.77832,3.72852,1.73633-7.80859-16.77832-3.72852c-31.41504-6.98145-55.5791-33.07617-60.12988-64.93262Z"/><path class="j" d="M324.0625,226.00488l-8.80762-12.33008-6.50977,4.65039,8.80762,12.33008c12.96094,18.14551,33.28516,28.05664,54.21973,28.05664,10.11719,0,20.37793-2.31445,30.0166-7.13379l-3.57812-7.15625c-26.04199,13.01953-57.22559,5.27441-74.14844-18.41699Z"/><path class="j" d="M357.58105,198.04004l-4.00488-1.7168-3.15234,7.35352,4.00586,1.7168c11.22559,4.81055,22.99316,7.15137,34.6416,7.15137,22.69629,0,44.93066-8.89062,61.75684-25.7168l-5.65625-5.65625c-23.13574,23.13672-57.51855,29.75781-87.59082,16.86816Z"/><path class="j" d="M456.41699,135.0791l3.0127-5.02148-6.85938-4.11523-3.0127,5.02148c-11.68555,19.47559-34.49805,29.56641-56.77344,25.11426l-1.56836,7.84375c4.0293,.80664,8.07227,1.19727,12.08105,1.19727,21.43359,0,41.81348-11.19531,53.12012-30.04004Z"/><path class="j" d="M283.47266,88.56641l7.91992-1.13281c-3.74512-26.18066-24.64551-47.08105-50.82617-50.82617l-1.13281,7.91992c22.68555,3.24414,40.79492,21.35352,44.03906,44.03906Z"/><path class="j" d="M306.41406,57.14062l7.66797-2.28125c-4.27148-14.35156-13.71484-26.52734-26.59082-34.28613l-4.12891,6.85156c11.16406,6.72754,19.35059,17.28125,23.05176,29.71582Z"/><path class="j" d="M451.06152,278.81055c-6.81641,21.87793-27.53613,36.87109-50.49316,36.45996l-.14258,7.99805c.35449,.00684,.70605,.00977,1.06055,.00977,26.02051,0,49.45117-17.17773,57.21387-42.08887l-7.63867-2.37891Z"/><path class="j" d="M427.93848,342.9248l1.03125,7.93359c14.84766-1.93066,28.37305-9.3125,38.08398-20.78809l-6.10742-5.16797c-8.41992,9.94922-20.14258,16.35059-33.00781,18.02246Z"/><path class="j" d="M256.64062,446.72559l-7.58398,2.54883c5.93848,17.67188,20.01855,31.78125,37.66309,37.74219l2.56055-7.58008c-15.29102-5.16504-27.49316-17.39355-32.63965-32.71094Z"/><path class="j" d="M230.21191,466.37793l-7.74414,2.00977c3.11426,11.99512,9.78027,22.59766,19.27734,30.66113l5.17773-6.09766c-8.23535-6.99219-14.01367-16.18164-16.71094-26.57324Z"/><path class="j" d="M55.58691,238.76758c2.22461-22.80859,19.50391-41.71191,42.02051-45.96973l-1.48633-7.86133c-25.98633,4.91406-45.92871,26.73047-48.49707,53.05371l7.96289,.77734Z"/><path class="j" d="M65.18555,171.28809l-2.62305-7.55664c-14.14648,4.91016-25.88672,14.88965-33.05957,28.10059l7.03125,3.81641c6.21875-11.4541,16.39355-20.10449,28.65137-24.36035Z"/></g></g><g id="d"/></svg>