<?xml version="1.0" encoding="iso-8859-1"?>
<!-- Generator: Adobe Illustrator 19.0.0, SVG Export Plug-In . SVG Version: 6.00 Build 0)  -->
<svg version="1.1" id="Layer_1" xmlns="http://www.w3.org/2000/svg" xmlns:xlink="http://www.w3.org/1999/xlink" x="0px" y="0px"
	 viewBox="0 0 274.711 274.711" style="enable-background:new 0 0 274.711 274.711;" xml:space="preserve">
<g>
	<path style="fill:#1D1D1B;" d="M263.208,200.278c4.461,14.949-18.968,21.057-29.697,22.424
		c-18.124,2.331-36.207-3.496-50.835-14.025c0.241,1.165,0.563,2.291,0.764,3.456c1.366,7.635,1.085,15.672,3.175,23.187
		c2.692,9.725,7.756,13.703,12.819,21.58c3.175,4.943,4.661,8.158,4.541,14.145c0,1.165-1.366,1.768-2.291,1.366
		c-0.723,2.009-2.291,2.733-5.144,2.049c-7.314-1.889-12.618-15.994-18.405-20.334c-8.479-6.389-20.254-6.631-28.934-13.141
		c-6.309-4.782-10.609-11.131-13.382-18.365c-2.693,6.028-6.309,11.855-10.81,17.28c-7.233,8.72-9.323,18.927-15.713,27.407
		c-1.648,2.21-3.054,5.465-6.349,5.867c-2.813,0.321-4.219-0.322-5.104-1.688c-3.416-2.371-4.3-5.144-4.38-9.926
		c-0.121-3.777,1.728-7.274,2.853-10.73c4.461-13.342,6.992-22.544,2.652-36.649c-2.612-8.439-7.193-17.159-9.403-25.719
		c-5.184,8.359-5.063,19.209-11.011,27.447c-5.827,8.118-14.668,13.502-23.026,18.566c-6.791,4.099-14.145,7.716-20.093,13.06
		c-4.38,3.938-6.791,9.243-10.77,13.261c-2.049,2.09-3.376,3.456-5.184,3.898c0.281,1.165-0.884,2.492-2.25,1.728
		c-6.39-3.456-7.233-6.952-5.505-14.025c1.849-7.876,9.203-14.828,13.02-21.861c6.189-11.493,6.791-22.584,7.233-35.363
		c0.241-7.796,1.889-15.15,4.782-21.54c0.723-1.848,1.688-3.576,2.572-4.742c6.229-10.087,16.476-16.717,30.863-16.798
		c-11.694-37.209-25.357-83.503,0.08-118.344C89.847,6.985,128.345-3.543,160.091,1.038C192.24,5.7,216.07,30.735,221.213,62.602
		c6.108,37.815-16.235,67.19-42.918,90.578c10.368-1.969,20.454,1.286,29.376,7.957c10.087,7.515,36.89,52.683,51.639,38.016
		c0.683-0.643,1.607-0.482,2.21,0C262.243,199.073,262.967,199.394,263.208,200.278z M218.24,218.724
		c7.153,0.764,42.918-0.884,42.074-15.672c-6.389,6.832-15.311,5.063-22.624-1.125c-20.575-17.32-29.898-51.92-63.092-45.53
		c-2.009,1.688-4.059,3.376-6.108,5.023c-2.049,1.648-5.023-1.125-2.974-2.974c25.237-22.665,52.161-46.213,52.161-83.144
		c0-40.668-30.742-69.963-70.606-70.767c-4.782-0.121-9.645,0.201-14.547,0.764c3.818,2.813,5.546,7.997,3.215,13.261
		c-4.541,10.046-18.083,17.842-28.974,16.757c-10.529-1.005-13.422-8.841-8.439-17.963c0.482-0.844,1.045-1.567,1.567-2.331
		c-13.663,6.952-25.317,17.36-32.149,31.465c-16.396,33.796-2.612,71.571,5.264,105.608c0.04,0.281,0,0.522-0.08,0.723
		c0.442,0.884,0,2.13-1.246,2.25c-4.822,0.442-9.162,1.567-13.101,3.215c5.385,1.768,4.42,9.645,1.366,13.743
		c-4.099,5.505-12.417,12.538-19.852,11.614c-0.924-0.121-1.688-0.362-2.331-0.723c-0.723,2.813-1.246,5.787-1.487,8.921
		c-0.522,6.832,0.322,13.784-0.683,20.615c-0.04,0.362-0.161,0.804-0.281,1.206c1.808-3.014,4.541-5.264,7.957-6.229
		c0.442-0.121,0.723,0.201,0.764,0.563c1.447,0.201,2.652,1.165,3.134,2.652c0.683,2.21-0.442,4.541-1.366,6.51
		c-1.608,3.295-4.702,7.716-8.961,7.033c-2.934-0.482-3.577-3.014-3.335-5.506c-5.425,12.659-19.289,34.68-16.315,42.798
		c1.728-0.723,8.961-9.564,8.961-9.484c2.492-3.295,5.385-5.988,8.6-8.56c6.47-5.305,13.864-9.162,20.937-13.502
		c14.145-8.68,21.339-16.637,26.241-32.269c1.768-5.626,2.934-9.685,6.671-13.944c-1.005-7.314,0.322-14.467,6.912-21.138
		c0.683-0.683,1.929,0.241,1.366,1.045c-4.702,6.671-5.827,13.02-5.104,19.289c0.482,0.522,0.683,1.246,0.322,1.969
		c2.451,13.663,13.06,26.844,14.226,41.15c0.884,10.971-13.261,33.394-6.751,42.717c5.345,1.246,12.659-18.445,13.944-20.575
		c2.974-4.903,7.274-8.399,10.81-12.779c14.949-18.646,17.039-41.391,8.198-63.132c-0.723-1.768,2.29-3.014,3.054-1.286
		c7.113,16.034,7.434,32.269,2.009,47.218c0.241,0.201,0.482,0.442,0.603,0.804c6.711,17.441,18.686,21.7,34.6,28.452
		c5.184,2.21,9.604,4.822,13.382,9.042c1.085,1.205,11.533,17.923,14.467,13.502c-2.652-13.06-15.672-22.665-18.566-36.488
		c-4.943-23.549-5.144-40.949-25.839-56.903c-1.125-0.884-0.161-2.652,1.125-1.929c12.859,6.952,20.816,17.722,24.634,31.184
		C193.647,212.093,204.939,217.398,218.24,218.724z M128.345,21.975c4.863-5.505,7.676-16.195-3.938-15.23
		c-0.12,0-0.281-0.04-0.402-0.08c-4.581,0.964-9.082,2.25-13.462,3.818c-5.907,3.456-13.583,10.931-8.6,17.561
		c4.742,6.309,14.025,2.974,19.812-0.643C124.045,25.953,126.496,24.024,128.345,21.975z M52.997,173.876
		c2.733-2.451,11.212-11.935,2.773-13.301c-0.402-0.08-0.643-0.281-0.804-0.563c-7.193,4.018-12.538,10.207-15.632,18.124
		c0.241,0.884,0.964,1.487,2.411,1.607C45.522,180.025,50.385,176.207,52.997,173.876z M41.664,218.081
		c0.643-0.965,4.461-7.394,1.447-7.515c-0.603-0.04-0.924-0.402-1.085-0.804c-2.893,2.09-5.224,5.184-5.626,8.801
		C35.878,223.184,40.338,220.01,41.664,218.081z"/>
	<path style="fill:#FACCE3;" d="M260.315,203.051c0.844,14.788-34.921,16.436-42.074,15.672
		c-13.301-1.326-24.594-6.631-36.247-12.859c-3.818-13.462-11.774-24.232-24.634-31.184c-1.286-0.723-2.25,1.045-1.125,1.929
		c20.696,15.954,20.897,33.354,25.839,56.903c2.893,13.824,15.913,23.428,18.566,36.488c-2.934,4.421-13.382-12.297-14.467-13.502
		c-3.777-4.22-8.198-6.832-13.382-9.042c-15.913-6.751-27.889-11.011-34.6-28.452c-0.12-0.362-0.362-0.603-0.603-0.804
		c5.425-14.949,5.104-31.184-2.009-47.218c-0.764-1.728-3.777-0.482-3.054,1.286c8.841,21.74,6.751,44.486-8.198,63.132
		c-3.536,4.38-7.836,7.876-10.81,12.779c-1.286,2.13-8.6,21.821-13.944,20.575c-6.51-9.323,7.635-31.747,6.751-42.717
		c-1.165-14.306-11.774-27.487-14.226-41.15c0.362-0.723,0.161-1.447-0.322-1.969c-0.723-6.269,0.402-12.618,5.104-19.289
		c0.563-0.804-0.683-1.728-1.366-1.045c-6.59,6.671-7.917,13.824-6.912,21.138c-3.737,4.26-4.903,8.318-6.671,13.944
		c-4.903,15.632-12.096,23.589-26.241,32.269c-7.073,4.34-14.467,8.198-20.937,13.502c-3.215,2.572-6.108,5.264-8.6,8.56
		c0-0.08-7.233,8.76-8.961,9.484c-2.974-8.118,10.89-30.139,16.315-42.798c-0.241,2.492,0.402,5.023,3.335,5.506
		c4.26,0.683,7.354-3.737,8.961-7.033c0.924-1.969,2.049-4.3,1.366-6.51c-0.482-1.487-1.688-2.451-3.134-2.652
		c-0.04-0.362-0.321-0.683-0.764-0.563c-3.416,0.964-6.148,3.215-7.957,6.229c0.121-0.402,0.241-0.844,0.281-1.206
		c1.005-6.832,0.161-13.784,0.683-20.615c0.241-3.135,0.764-6.108,1.487-8.921c0.643,0.362,1.407,0.603,2.331,0.723
		c7.434,0.924,15.753-6.108,19.852-11.614c3.054-4.099,4.019-11.975-1.366-13.743c3.938-1.648,8.278-2.773,13.101-3.215
		c1.246-0.12,1.688-1.366,1.246-2.25c0.08-0.201,0.121-0.442,0.08-0.723c-7.876-34.037-21.66-71.812-5.264-105.608
		c6.832-14.105,18.485-24.513,32.149-31.465c-0.522,0.764-1.085,1.487-1.567,2.331c-4.983,9.122-2.09,16.958,8.439,17.963
		c10.89,1.085,24.433-6.711,28.974-16.757c2.331-5.264,0.603-10.448-3.215-13.261c4.903-0.563,9.765-0.884,14.547-0.764
		c39.864,0.804,70.606,30.099,70.606,70.767c0,36.931-26.924,60.479-52.161,83.144c-2.049,1.849,0.924,4.621,2.974,2.974
		c2.049-1.648,4.099-3.335,6.108-5.023c33.193-6.389,42.516,28.21,63.092,45.53C245.004,208.115,253.925,209.883,260.315,203.051z
		 M221.656,190.674c2.049-2.974-0.402-6.51-3.054-8.077c-2.813-1.648-7.595-2.25-10.127,0.201c-0.683,0.643-0.362,1.447,0.281,1.808
		C208.234,190.071,218.039,195.938,221.656,190.674z M214.302,67.344c0.08,0.683,1.085,0.362,1.005-0.281
		c-0.402-2.893-0.884-5.706-1.407-8.56c-0.12-0.442-0.884-0.321-0.804,0.121C213.418,61.558,213.78,64.451,214.302,67.344z
		 M212.574,70.921c0.683-4.019-0.281-7.796-2.532-11.212c-0.522-0.844-1.848-0.08-1.326,0.804c1.808,3.094,2.451,6.59,2.291,10.167
		C210.967,71.564,212.413,71.805,212.574,70.921z M207.189,183.762c6.51-4.139,3.536-13.422-1.366-17.4
		c-3.576-2.893-8.198-3.858-12.699-3.737c-1.848,0.08-3.978,0.121-5.546,0.964c-5.144,1.607-3.416,10.408-0.683,13.944
		C190.874,182.677,200.96,187.741,207.189,183.762z M202.528,204.257c1.045,0.322,1.567-1.125,0.723-1.688
		c-2.049-1.286-4.3-2.17-6.51-3.094c-1.165-0.482-2.21,1.165-1.005,1.728C197.946,202.328,200.157,203.533,202.528,204.257z
		 M197.745,205.583c0.804,0.08,0.965-1.246,0.201-1.406c-3.255-0.723-6.108-1.728-8.801-3.818c-0.442-0.362-1.045,0.201-0.643,0.643
		C191.034,203.413,194.249,205.181,197.745,205.583z M194.812,113.558c0.241-0.563-0.683-0.924-0.964-0.402
		c-1.246,2.25-2.532,4.461-4.099,6.47c-0.362,0.482,0.442,1.125,0.844,0.683C192.32,118.219,193.807,116.049,194.812,113.558z
		 M192.883,121.595c0.603-0.643-0.201-1.808-0.964-1.246c-3.295,2.411-6.269,5.304-9.243,8.077
		c-0.683,0.643,0.322,1.567,1.005,1.045C186.815,126.94,190.07,124.488,192.883,121.595z M187.297,89.647
		c2.09-2.813,2.974-6.47,2.17-9.886c-0.161-0.683-0.764-1.246-1.406-1.527c-0.08-0.12-0.121-0.281-0.201-0.402
		c-0.764-1.366-3.295-0.844-3.094,0.844c0.08,0.763,0.161,1.487,0.161,2.21c0,0.04,0,0.04,0,0.08c0.04,2.21-0.362,4.3-1.688,6.309
		C181.551,89.848,185.569,92.018,187.297,89.647z M186.574,251.395c0.482,0.763,1.607,0.08,1.206-0.683
		c-0.764-1.487-1.768-2.532-3.175-3.376c-0.763-0.442-1.406,0.683-0.683,1.165C185.047,249.265,185.891,250.229,186.574,251.395z
		 M179.34,113.598c1.286-0.683,0.362-2.532-0.924-2.21c-9.765,2.17-18.566,1.969-26.764-4.621c-0.643-0.522-1.527,0.321-0.924,0.924
		C157.801,114.884,169.937,118.581,179.34,113.598z M177.291,229.172c1.929-2.773,0.442-7.233-1.848-9.363
		c-1.366-1.246-4.139-1.527-5.465-0.241c-0.281-0.08-0.643,0-0.844,0.281c-1.768,2.733-1.889,7.073,0.522,9.444
		C171.705,231.302,175.523,231.744,177.291,229.172z M172.629,18.478c0.12-1.005-1.366-1.085-1.648-0.201
		c-0.844,2.331-1.648,4.34-3.456,6.108c-0.683,0.723,0.362,1.728,1.085,1.085C170.7,23.662,172.348,21.251,172.629,18.478z
		 M171.906,212.495c2.09-6.59-0.964-15.351-6.349-19.57c-3.295-2.612-9.685-2.17-9.685,2.612c-1.607,5.907-0.201,12.417,3.697,17.2
		C163.025,216.996,169.816,219.166,171.906,212.495z M168.209,18.438c0.121-0.683-1.005-0.964-1.286-0.362
		c-1.085,2.411-2.09,4.34-4.501,5.666c-0.442,0.241-0.121,1.085,0.402,0.884C165.476,23.542,167.847,21.372,168.209,18.438z
		 M162.663,88.281c1.567-2.049,2.371-4.661,2.331-7.193c-0.04-1.889-0.482-4.219-1.768-5.706c-0.201-0.362-0.482-0.643-0.844-0.804
		c-0.08-0.04-0.12-0.121-0.201-0.161c-1.366-0.764-3.175,0.161-3.134,1.768c0.04,1.246,0.563,2.331,0.924,3.496
		c-0.08,2.09-0.402,4.179-1.366,6.229C157.319,88.683,160.855,90.652,162.663,88.281z M164.11,223.104
		c1.206-0.121,1.206-1.849,0-1.889c-4.019-0.161-7.836-1.286-11.252-3.416c-1.125-0.683-2.049,1.005-1.005,1.728
		C155.47,222.139,159.609,223.425,164.11,223.104z M154.265,27.038c4.42-1.005,9.403-5.465,8.76-10.368
		c-0.281-2.05-1.447-3.898-3.496-4.541c-1.366-0.442-2.773-0.321-3.737,0.563c-4.179,0.804-9.283,3.175-10.167,7.434
		C144.58,24.989,150.125,27.962,154.265,27.038z M160.091,216.795c1.005,0.08,1.125-1.447,0.241-1.728
		c-2.572-0.723-4.742-1.808-6.269-4.018c-0.482-0.643-1.567-0.08-1.125,0.683C154.425,214.424,156.957,216.433,160.091,216.795z
		 M141.405,19.885c1.808-2.05,3.014-4.903,2.492-7.675c-0.161-0.924-1.447-0.603-1.527,0.201c-0.281,2.491-0.603,4.501-2.049,6.631
		C139.878,19.684,140.883,20.448,141.405,19.885z M142.249,40.179c0.563-1.527,0.482-3.376-0.884-4.42
		c-0.161-0.121-0.322-0.201-0.522-0.281c-0.04-0.161-0.161-0.281-0.362-0.241c-0.04,0-0.08,0-0.121,0
		c-0.683-0.201-1.366-0.161-1.969,0.201c-2.733,0.402-5.184,1.648-6.992,3.898c-2.21,2.733-1.487,6.55,2.532,6.51
		C137.387,45.805,141.043,43.474,142.249,40.179z M122.317,202.81c1.366-2.451,1.969-4.943,1.366-7.756
		c-0.201-0.924-1.607-0.683-1.607,0.241c-0.04,2.291-0.362,4.541-1.366,6.59C120.187,202.931,121.714,203.855,122.317,202.81z
		 M118.539,200.68c1.527-2.17,2.09-4.822,1.045-7.314c-0.281-0.643-1.487-0.322-1.407,0.402c0.281,2.21,0.281,4.179-0.924,6.148
		C116.731,200.761,118.017,201.484,118.539,200.68z M113.476,199.234c4.139-6.791-0.603-16.516-5.104-21.941
		c-1.768-2.13-4.139-3.978-7.033-2.974c-1.849,0.683-2.934,2.049-2.934,3.777c-1.406,1.607-1.406,4.541-1.567,6.51
		c-0.281,4.019,0.402,8.238,2.411,11.734C102.264,201.645,109.377,205.945,113.476,199.234z M113.476,212.857
		c0.402-3.094-2.09-5.505-4.139-7.434c-0.281-0.281-0.603-0.281-0.884-0.241c-0.161-0.161-0.402-0.241-0.643-0.08
		c-2.25,1.527-3.255,4.099-3.054,6.791c0.201,2.331,1.527,5.224,4.219,5.264C111.306,217.156,113.195,215.027,113.476,212.857z
		 M112.632,237.772c0.723-2.009,0.844-5.867-1.447-6.912c-0.482-0.241-1.206-0.08-1.447,0.442c-2.291,0.241-3.737,2.17-4.662,4.22
		c-0.964,2.21-1.447,5.626,1.688,6.229C109.377,242.272,111.788,240.062,112.632,237.772z M110.824,62.683
		c4.26-4.782,7.836-15.552-0.322-17.521c-0.08-0.161-0.241-0.321-0.442-0.402c-9.886-3.858-21.419,0.683-27.768,8.76
		c-4.863,6.229-8.64,18.244,1.607,21.298C93.946,77.873,104.595,69.675,110.824,62.683z M110.462,244.844
		c0.402-0.643-0.603-1.406-1.085-0.804c-1.648,1.969-3.094,4.059-4.581,6.189c-0.442,0.603,0.603,1.447,1.085,0.804
		C107.448,249.024,109.015,247.014,110.462,244.844z M106.805,135.539c0.643,0.643,1.849-0.241,1.286-1.005
		c-1.768-2.492-2.652-5.345-2.009-8.359c0.201-1.005-1.286-1.447-1.567-0.442C103.59,129.23,104.274,132.887,106.805,135.539z
		 M94.267,34.071c0.723,0.643,1.728-0.362,1.085-1.085c-0.884-1.005-1.246-2.331-1.447-3.657c-0.121-0.643-1.085-0.563-1.246,0
		C92.138,31.217,92.821,32.785,94.267,34.071z M94.87,81.57c0.522-0.844-0.723-1.487-1.286-0.723
		c-1.768,2.371-4.862,3.094-7.555,1.929c-0.683-0.281-1.205,0.563-0.603,1.005C88.561,85.91,92.941,84.745,94.87,81.57z
		 M90.852,36.964c0.482,0.482,1.366-0.12,0.964-0.764c-1.165-1.728-1.929-3.416-1.607-5.546c0.121-0.804-1.085-1.165-1.205-0.362
		C88.561,32.704,89.003,35.276,90.852,36.964z M90.048,78.717c0.643-0.362,0.201-1.487-0.522-1.206
		c-2.009,0.804-4.059,0.924-6.148,0.201c-0.683-0.201-1.165,0.884-0.482,1.165C85.306,79.922,87.677,79.922,90.048,78.717z
		 M75.3,122.881c0.442,0.563,1.286-0.161,0.964-0.764c-1.286-2.733-2.25-5.184-2.492-8.198c-0.08-0.804-1.246-0.844-1.286,0
		C72.447,117.094,73.331,120.349,75.3,122.881z M68.669,91.375c2.733-1.045,5.264-5.144,5.224-8.037c0-2.21-2.25-5.505-4.662-4.983
		c-0.241-0.121-0.482-0.161-0.683,0c-2.693,1.849-4.662,5.224-4.742,8.519C63.766,89.567,65.655,92.5,68.669,91.375z
		 M71.161,123.243c0.442,0.643,1.487,0.08,1.085-0.643c-1.768-2.974-2.692-6.229-2.652-9.725c0.04-0.723-1.045-0.683-1.085,0
		C68.227,116.612,69.071,120.148,71.161,123.243z M70.879,51.511c0.402-0.723-0.643-1.648-1.205-0.924
		c-1.889,2.21-2.733,4.661-2.893,7.555c-0.04,0.884,1.407,1.085,1.567,0.201C68.79,55.932,69.714,53.681,70.879,51.511z
		 M69.955,173.193c0.04-0.844-1.366-1.085-1.487-0.241c-0.402,2.331-1.447,4.219-3.576,5.305c-0.563,0.281-0.161,1.286,0.442,1.045
		C67.946,178.297,69.875,176.046,69.955,173.193z M67.504,215.589c0.362-0.924-1.165-1.567-1.607-0.683
		c-1.286,2.411-3.536,4.059-6.269,4.219c-1.045,0.04-1.045,1.527,0,1.567C63.164,220.854,66.218,218.925,67.504,215.589z
		 M62.079,175.886c2.371-1.527,3.737-3.858,3.657-6.711c-0.04-0.924-1.286-0.884-1.407,0c-0.241,2.13-1.286,4.099-3.054,5.425
		C60.511,175.162,61.195,176.448,62.079,175.886z M65.374,211.37c0.08-0.723-0.965-0.924-1.326-0.362
		c-0.764,1.246-1.447,2.09-2.733,2.813c-0.683,0.362-0.201,1.326,0.482,1.206C63.686,214.665,65.133,213.218,65.374,211.37z
		 M43.272,199.475c2.612-1.728,4.139-6.55,3.777-9.524c-0.201-1.527-1.607-2.853-3.014-3.094c-0.161-0.362-0.603-0.603-0.965-0.362
		c-2.853,2.009-5.827,5.787-6.108,9.404C36.721,199.435,40.338,201.404,43.272,199.475z M27.439,240.464
		c0.482-0.643-0.281-1.527-0.924-0.924c-1.447,1.407-2.692,2.974-4.019,4.501c-0.522,0.643,0.362,1.567,0.924,0.924
		C24.786,243.478,26.193,242.031,27.439,240.464z"/>
	<path style="fill:#1D1D1B;" d="M218.602,182.597c2.652,1.567,5.104,5.104,3.054,8.077c-3.617,5.264-13.422-0.603-12.9-6.068
		c-0.643-0.362-0.965-1.165-0.281-1.808C211.007,180.346,215.789,180.949,218.602,182.597z M214.382,188.584
		c1.366,0.804,5.224,2.13,4.742-0.884c-0.321-1.929-2.733-3.094-4.42-3.416c-1.326-0.281-2.411-0.04-3.577,0.241
		C211.368,186.294,212.895,187.66,214.382,188.584z"/>
	<path style="fill:#F49AC7;" d="M219.124,187.7c0.482,3.014-3.376,1.688-4.742,0.884c-1.487-0.924-3.014-2.291-3.255-4.059
		c1.165-0.281,2.25-0.522,3.577-0.241C216.392,184.606,218.803,185.771,219.124,187.7z"/>
	<path style="fill:#1D1D1B;" d="M215.307,67.063c0.08,0.643-0.924,0.965-1.005,0.281c-0.522-2.893-0.884-5.787-1.206-8.72
		c-0.08-0.442,0.683-0.563,0.804-0.121C214.423,61.357,214.905,64.17,215.307,67.063z"/>
	<path style="fill:#1D1D1B;" d="M210.042,59.709c2.25,3.416,3.215,7.193,2.532,11.212c-0.161,0.884-1.607,0.643-1.567-0.241
		c0.161-3.576-0.482-7.073-2.291-10.167C208.194,59.629,209.52,58.865,210.042,59.709z"/>
	<path style="fill:#1D1D1B;" d="M205.823,166.362c4.903,3.978,7.876,13.261,1.366,17.4c-6.229,3.978-16.315-1.085-20.294-6.229
		c-2.733-3.536-4.461-12.337,0.683-13.944c1.567-0.844,3.697-0.884,5.546-0.964C197.625,162.504,202.246,163.468,205.823,166.362z
		 M202.648,181.19c8.238-1.447,3.335-10.73-1.005-13.1c-2.934-1.607-10.931-3.536-13.703-0.965
		c-0.322,0.281-0.683,0.322-1.085,0.322c-0.522,3.416,3.255,8.801,5.345,10.288C194.732,179.502,199.353,181.793,202.648,181.19z"/>
	<path style="fill:#F49AC7;" d="M201.643,168.09c4.34,2.371,9.243,11.654,1.005,13.1c-3.295,0.603-7.917-1.688-10.448-3.456
		c-2.09-1.487-5.867-6.872-5.345-10.288c0.402,0,0.763-0.04,1.085-0.322C190.713,164.553,198.71,166.482,201.643,168.09z"/>
	<path style="fill:#1D1D1B;" d="M203.251,202.569c0.844,0.563,0.322,2.009-0.723,1.688c-2.371-0.723-4.581-1.929-6.791-3.054
		c-1.206-0.563-0.161-2.21,1.005-1.728C198.951,200.399,201.201,201.283,203.251,202.569z"/>
	<path style="fill:#1D1D1B;" d="M197.946,204.176c0.764,0.161,0.603,1.487-0.201,1.406c-3.496-0.402-6.711-2.17-9.243-4.581
		c-0.402-0.442,0.201-1.005,0.643-0.643C191.838,202.448,194.691,203.453,197.946,204.176z"/>
	<path style="fill:#1D1D1B;" d="M193.847,113.156c0.281-0.522,1.206-0.161,0.964,0.402c-1.005,2.492-2.492,4.662-4.219,6.751
		c-0.402,0.442-1.206-0.201-0.844-0.683C191.316,117.617,192.602,115.406,193.847,113.156z"/>
	<path style="fill:#1D1D1B;" d="M191.919,120.349c0.763-0.563,1.567,0.603,0.964,1.246c-2.813,2.893-6.068,5.345-9.202,7.876
		c-0.683,0.522-1.688-0.402-1.005-1.045C185.65,125.654,188.623,122.76,191.919,120.349z"/>
	<path style="fill:#1D1D1B;" d="M189.467,79.762c0.804,3.416-0.08,7.073-2.17,9.886c-1.728,2.371-5.747,0.201-4.059-2.371
		c1.326-2.009,1.728-4.099,1.688-6.309c0-0.04,0-0.04,0-0.08c0-0.723-0.08-1.447-0.161-2.21c-0.201-1.688,2.331-2.21,3.094-0.844
		c0.08,0.12,0.121,0.281,0.201,0.402C188.704,78.516,189.306,79.078,189.467,79.762z"/>
	<path style="fill:#1D1D1B;" d="M187.779,250.711c0.402,0.764-0.723,1.447-1.206,0.683c-0.683-1.165-1.527-2.13-2.652-2.893
		c-0.723-0.482-0.08-1.607,0.683-1.165C186.011,248.18,187.016,249.225,187.779,250.711z"/>
	<path style="fill:#1D1D1B;" d="M178.416,111.388c1.286-0.322,2.21,1.527,0.924,2.21c-9.403,4.983-21.54,1.286-28.612-5.907
		c-0.603-0.603,0.281-1.447,0.924-0.924C159.85,113.357,168.651,113.558,178.416,111.388z"/>
	<path style="fill:#1D1D1B;" d="M175.442,219.809c2.29,2.13,3.777,6.59,1.848,9.363c-1.768,2.572-5.586,2.13-7.635,0.121
		c-2.411-2.371-2.291-6.711-0.522-9.444c0.201-0.281,0.563-0.362,0.844-0.281C171.303,218.282,174.076,218.563,175.442,219.809z
		 M173.795,227.966c3.577-0.442,0.201-9.604-2.893-5.907c-0.161,0.161-0.322,0.241-0.482,0.281
		C170.299,225.033,170.5,228.408,173.795,227.966z"/>
	<path style="fill:#F49AC7;" d="M170.901,222.059c3.094-3.697,6.47,5.465,2.893,5.907c-3.295,0.442-3.496-2.934-3.376-5.626
		C170.58,222.3,170.741,222.22,170.901,222.059z"/>
	<path style="fill:#1D1D1B;" d="M170.982,18.278c0.281-0.884,1.768-0.804,1.648,0.201c-0.281,2.773-1.929,5.184-4.019,6.992
		c-0.723,0.643-1.768-0.362-1.085-1.085C169.334,22.618,170.138,20.608,170.982,18.278z"/>
	<path style="fill:#1D1D1B;" d="M165.557,192.924c5.385,4.219,8.439,12.98,6.349,19.57c-2.09,6.671-8.881,4.501-12.337,0.241
		c-3.898-4.782-5.305-11.292-3.697-17.2C155.872,190.754,162.262,190.312,165.557,192.924z M163.588,212.214
		c6.912,4.059,5.505-6.831,4.38-9.805c-0.603-1.607-1.407-3.175-2.411-4.541c-0.884-1.246-6.309-7.193-7.193-1.206
		c-0.08,0.362-0.281,0.563-0.522,0.723C157.56,202.81,158.886,209.441,163.588,212.214z"/>
	<path style="fill:#1D1D1B;" d="M166.923,18.077c0.281-0.603,1.406-0.322,1.286,0.362c-0.362,2.934-2.733,5.104-5.385,6.189
		c-0.522,0.201-0.844-0.643-0.402-0.884C164.833,22.417,165.838,20.488,166.923,18.077z"/>
	<path style="fill:#F49AC7;" d="M167.968,202.408c1.125,2.974,2.532,13.864-4.38,9.805c-4.702-2.773-6.028-9.403-5.747-14.828
		c0.241-0.161,0.442-0.362,0.522-0.723c0.884-5.988,6.309-0.04,7.193,1.206C166.561,199.234,167.365,200.801,167.968,202.408z"/>
	<path style="fill:#1D1D1B;" d="M164.994,81.088c0.04,2.532-0.764,5.144-2.331,7.193c-1.808,2.371-5.345,0.402-4.059-2.371
		c0.964-2.049,1.286-4.139,1.366-6.229c-0.362-1.165-0.884-2.25-0.924-3.496c-0.04-1.607,1.768-2.532,3.134-1.768
		c0.08,0.04,0.121,0.12,0.201,0.161c0.362,0.161,0.643,0.442,0.844,0.804C164.512,76.868,164.954,79.199,164.994,81.088z"/>
	<path style="fill:#1D1D1B;" d="M164.11,221.215c1.206,0.04,1.206,1.768,0,1.889c-4.501,0.321-8.64-0.964-12.257-3.577
		c-1.045-0.723-0.121-2.411,1.005-1.728C156.274,219.929,160.091,221.054,164.11,221.215z"/>
	<path style="fill:#1D1D1B;" d="M163.025,16.67c0.643,4.903-4.34,9.363-8.76,10.368c-4.139,0.924-9.685-2.049-8.64-6.912
		c0.884-4.26,5.988-6.631,10.167-7.434c0.964-0.884,2.371-1.005,3.737-0.563C161.578,12.772,162.744,14.621,163.025,16.67z
		 M158.886,20.488c1.085-1.206,2.09-3.335,1.005-4.943c-1.005-1.487-2.492-1.005-3.858-0.643c-0.362,0.121-0.643-0.04-0.844-0.241
		c-1.688,0.723-3.295,1.728-4.621,3.014c-0.844,0.804-2.009,1.929-2.009,3.215c0.04,1.728,1.889,2.893,3.416,3.014
		C154.506,24.064,157.238,22.296,158.886,20.488z"/>
	<path style="fill:#1D1D1B;" d="M160.333,215.067c0.884,0.281,0.764,1.808-0.241,1.728c-3.135-0.362-5.666-2.371-7.153-5.063
		c-0.442-0.764,0.643-1.326,1.125-0.683C155.591,213.258,157.761,214.343,160.333,215.067z"/>
	<path style="fill:#F49AC7;" d="M159.891,15.545c1.085,1.607,0.08,3.737-1.005,4.943c-1.648,1.808-4.38,3.576-6.912,3.416
		c-1.527-0.121-3.376-1.286-3.416-3.014c0-1.286,1.165-2.411,2.009-3.215c1.326-1.286,2.934-2.291,4.621-3.014
		c0.201,0.201,0.482,0.362,0.844,0.241C157.399,14.54,158.886,14.058,159.891,15.545z"/>
	<path style="fill:#1D1D1B;" d="M143.897,12.21c0.522,2.773-0.683,5.626-2.492,7.675c-0.522,0.563-1.527-0.201-1.085-0.844
		c1.447-2.13,1.768-4.139,2.049-6.631C142.45,11.607,143.736,11.285,143.897,12.21z"/>
	<path style="fill:#1D1D1B;" d="M141.365,35.758c1.366,1.045,1.447,2.893,0.884,4.42c-1.206,3.295-4.862,5.626-8.318,5.666
		c-4.019,0.04-4.742-3.778-2.532-6.51c1.808-2.25,4.26-3.496,6.992-3.898c0.603-0.362,1.286-0.402,1.969-0.201
		c0.04,0,0.08,0,0.121,0c0.201-0.04,0.321,0.08,0.362,0.241C141.043,35.557,141.204,35.638,141.365,35.758z M138.19,40.54
		c0.04,0,2.411-3.014,0.723-2.733c-0.563,0.121-1.005-0.12-1.206-0.482c-1.808,0.964-3.456,2.331-4.179,4.019
		c-0.442,1.045-0.362,1.206,0.763,1.085c0.804-0.08,1.567-0.322,2.25-0.683C137.145,41.424,137.708,41.023,138.19,40.54z"/>
	<path style="fill:#F49AC7;" d="M138.914,37.808c1.688-0.281-0.683,2.733-0.723,2.733c-0.482,0.482-1.045,0.884-1.648,1.206
		c-0.683,0.362-1.447,0.603-2.25,0.683c-1.125,0.12-1.205-0.04-0.763-1.085c0.723-1.688,2.371-3.054,4.179-4.019
		C137.909,37.687,138.351,37.928,138.914,37.808z"/>
	<path style="fill:#F49AC7;" d="M124.407,6.744c11.614-0.964,8.801,9.725,3.938,15.23c-1.848,2.049-4.3,3.978-6.59,5.425
		c-5.787,3.617-15.07,6.952-19.812,0.643c-4.983-6.631,2.692-14.105,8.6-17.561c4.38-1.567,8.881-2.853,13.462-3.818
		C124.125,6.704,124.286,6.744,124.407,6.744z"/>
	<path style="fill:#1D1D1B;" d="M123.683,195.054c0.603,2.813,0,5.304-1.366,7.756c-0.603,1.045-2.13,0.121-1.607-0.924
		c1.005-2.049,1.326-4.3,1.366-6.59C122.076,194.371,123.482,194.13,123.683,195.054z"/>
	<path style="fill:#1D1D1B;" d="M119.584,193.367c1.045,2.492,0.482,5.144-1.045,7.314c-0.522,0.804-1.808,0.08-1.286-0.764
		c1.206-1.969,1.206-3.938,0.924-6.148C118.097,193.045,119.303,192.724,119.584,193.367z"/>
	<path style="fill:#1D1D1B;" d="M108.373,177.292c4.501,5.425,9.243,15.15,5.104,21.941c-4.099,6.711-11.212,2.411-14.226-2.893
		c-2.009-3.496-2.692-7.716-2.411-11.734c0.161-1.969,0.161-4.903,1.567-6.51c0-1.728,1.085-3.094,2.934-3.777
		C104.233,173.314,106.604,175.162,108.373,177.292z M107.609,197.104c2.693,0.603,3.898-0.522,3.617-3.376c0-0.522,0-1.085,0-1.648
		c-0.161-2.411-1.165-4.983-2.21-7.113c-0.522-1.045-1.125-2.049-1.728-3.014c-0.04-0.08-5.385-7.836-5.827-2.934
		c-0.12,1.005-1.005,1.487-1.768,1.326c-0.04,3.175,0.844,9.926,0.884,10.087c0.442,1.406,1.005,2.813,1.808,4.099
		C104.113,197.345,104.274,197.425,107.609,197.104z"/>
	<path style="fill:#1D1D1B;" d="M109.337,205.422c2.049,1.929,4.541,4.34,4.139,7.434c-0.281,2.17-2.17,4.3-4.501,4.3
		c-2.692-0.04-4.019-2.934-4.219-5.264c-0.201-2.693,0.804-5.264,3.054-6.791c0.241-0.161,0.482-0.08,0.643,0.08
		C108.734,205.141,109.056,205.141,109.337,205.422z M108.975,214.263c1.607,0.04,2.17-2.049,1.808-3.295
		c-0.402-1.567-1.607-2.813-2.733-3.938c-0.442,1.005-0.804,2.049-0.844,3.135C107.127,211.33,107.408,214.263,108.975,214.263z"/>
	<path style="fill:#1D1D1B;" d="M111.186,230.86c2.29,1.045,2.17,4.903,1.447,6.912c-0.844,2.291-3.255,4.501-5.867,3.978
		c-3.134-0.603-2.652-4.019-1.688-6.229c0.924-2.049,2.371-3.978,4.662-4.22C109.98,230.779,110.703,230.619,111.186,230.86z
		 M110.422,235.28c0.121-0.964-0.281-1.768-0.563-2.612c-1.286,0.563-1.969,1.969-2.411,3.295c-0.402,1.125-1.326,4.059,1.005,2.733
		C109.618,238.013,110.301,236.606,110.422,235.28z"/>
	<path style="fill:#1D1D1B;" d="M110.502,45.162c8.158,1.969,4.581,12.739,0.322,17.521c-6.229,6.992-16.878,15.19-26.924,12.136
		c-10.247-3.054-6.47-15.07-1.607-21.298c6.349-8.077,17.883-12.618,27.768-8.76C110.261,44.84,110.422,45.001,110.502,45.162z
		 M102.867,65.013c3.456-2.853,15.592-14.507,5.586-17.441c-0.482-0.161-0.763-0.522-0.884-0.964
		c-5.546-0.08-10.729,0.402-15.712,3.456c-2.934,1.808-5.465,4.219-7.394,7.113c-2.733,4.139-3.416,5.988-1.286,10.328
		c0.281,2.974,1.768,4.3,4.461,3.898c1.889,0,3.697-0.241,5.465-0.804C96.719,69.514,99.974,67.384,102.867,65.013z"/>
	<path style="fill:#F49AC7;" d="M111.226,193.728c0.281,2.853-0.924,3.978-3.617,3.376c-3.335,0.322-3.496,0.241-5.224-2.572
		c-0.804-1.286-1.366-2.693-1.808-4.099c-0.04-0.161-0.924-6.912-0.884-10.087c0.763,0.161,1.648-0.322,1.768-1.326
		c0.442-4.903,5.787,2.853,5.827,2.934c0.603,0.964,1.205,1.969,1.728,3.014c1.045,2.13,2.049,4.702,2.21,7.113
		C111.226,192.643,111.226,193.206,111.226,193.728z"/>
	<path style="fill:#F49AC7;" d="M110.784,210.968c0.362,1.246-0.201,3.335-1.808,3.295c-1.567,0-1.848-2.934-1.768-4.099
		c0.04-1.085,0.402-2.13,0.844-3.135C109.176,208.155,110.382,209.401,110.784,210.968z"/>
	<path style="fill:#1D1D1B;" d="M109.377,244.041c0.482-0.603,1.487,0.161,1.085,0.804c-1.447,2.17-3.014,4.179-4.581,6.189
		c-0.482,0.643-1.527-0.201-1.085-0.804C106.283,248.099,107.73,246.01,109.377,244.041z"/>
	<path style="fill:#F49AC7;" d="M109.859,232.668c0.281,0.844,0.683,1.648,0.563,2.612c-0.12,1.326-0.804,2.733-1.969,3.416
		c-2.331,1.326-1.407-1.607-1.005-2.733C107.89,234.637,108.573,233.231,109.859,232.668z"/>
	<path style="fill:#F49AC7;" d="M108.453,47.573c10.006,2.934-2.13,14.587-5.586,17.441c-2.893,2.371-6.148,4.501-9.765,5.586
		c-1.768,0.563-3.576,0.804-5.465,0.804c-2.692,0.402-4.179-0.924-4.461-3.898c-2.13-4.34-1.447-6.189,1.286-10.328
		c1.929-2.893,4.461-5.305,7.394-7.113c4.983-3.054,10.167-3.536,15.712-3.456C107.689,47.05,107.971,47.412,108.453,47.573z"/>
	<path style="fill:#1D1D1B;" d="M108.091,134.535c0.563,0.764-0.643,1.648-1.286,1.005c-2.532-2.652-3.215-6.309-2.291-9.805
		c0.281-1.005,1.768-0.563,1.567,0.442C105.439,129.19,106.323,132.043,108.091,134.535z"/>
	<path style="fill:#1D1D1B;" d="M95.352,32.985c0.643,0.723-0.362,1.728-1.085,1.085c-1.447-1.286-2.13-2.853-1.607-4.742
		c0.161-0.563,1.125-0.643,1.246,0C94.107,30.655,94.468,31.981,95.352,32.985z"/>
	<path style="fill:#1D1D1B;" d="M93.584,80.847c0.563-0.764,1.808-0.121,1.286,0.723c-1.929,3.175-6.309,4.34-9.444,2.21
		c-0.603-0.442-0.08-1.286,0.603-1.005C88.722,83.941,91.816,83.218,93.584,80.847z"/>
	<path style="fill:#1D1D1B;" d="M91.816,36.2c0.402,0.643-0.482,1.246-0.964,0.764c-1.849-1.688-2.291-4.26-1.849-6.671
		c0.12-0.804,1.326-0.442,1.205,0.362C89.887,32.785,90.651,34.472,91.816,36.2z"/>
	<path style="fill:#1D1D1B;" d="M89.525,77.511c0.723-0.281,1.165,0.844,0.522,1.206c-2.371,1.206-4.742,1.206-7.153,0.161
		c-0.683-0.281-0.201-1.366,0.482-1.165C85.467,78.435,87.516,78.315,89.525,77.511z"/>
	<path style="fill:#1D1D1B;" d="M76.264,122.117c0.321,0.603-0.522,1.326-0.964,0.764c-1.969-2.532-2.853-5.787-2.813-8.961
		c0.04-0.844,1.206-0.804,1.286,0C74.014,116.933,74.978,119.385,76.264,122.117z"/>
	<path style="fill:#1D1D1B;" d="M73.893,83.338c0.04,2.893-2.492,6.992-5.224,8.037c-3.014,1.125-4.903-1.808-4.862-4.501
		c0.08-3.295,2.049-6.671,4.742-8.519c0.201-0.161,0.442-0.121,0.683,0C71.643,77.833,73.893,81.128,73.893,83.338z M70.518,85.227
		c1.045-2.17,0.161-3.617-1.768-4.501c-0.643,0.965-1.246,1.969-1.607,3.054c-0.322,0.844-1.366,4.179-0.04,4.822
		C68.267,89.125,70.196,85.95,70.518,85.227z"/>
	<path style="fill:#1D1D1B;" d="M72.246,122.6c0.402,0.723-0.643,1.286-1.085,0.643c-2.09-3.094-2.934-6.631-2.652-10.368
		c0.04-0.683,1.125-0.723,1.085,0C69.553,116.371,70.477,119.626,72.246,122.6z"/>
	<path style="fill:#1D1D1B;" d="M69.674,50.587c0.563-0.723,1.607,0.201,1.205,0.924c-1.165,2.17-2.09,4.421-2.532,6.832
		c-0.161,0.884-1.607,0.683-1.567-0.201C66.941,55.248,67.785,52.797,69.674,50.587z"/>
	<path style="fill:#F49AC7;" d="M68.749,80.726c1.929,0.884,2.813,2.331,1.768,4.501c-0.322,0.723-2.25,3.898-3.416,3.376
		c-1.326-0.643-0.281-3.978,0.04-4.822C67.504,82.695,68.106,81.691,68.749,80.726z"/>
	<path style="fill:#1D1D1B;" d="M68.468,172.952c0.12-0.844,1.527-0.603,1.487,0.241c-0.08,2.853-2.009,5.104-4.621,6.108
		c-0.603,0.241-1.005-0.763-0.442-1.045C67.021,177.172,68.066,175.283,68.468,172.952z"/>
	<path style="fill:#1D1D1B;" d="M65.896,214.906c0.442-0.884,1.969-0.241,1.607,0.683c-1.286,3.336-4.34,5.264-7.876,5.104
		c-1.045-0.04-1.045-1.527,0-1.567C62.36,218.965,64.61,217.317,65.896,214.906z"/>
	<path style="fill:#1D1D1B;" d="M65.736,169.175c0.08,2.853-1.286,5.184-3.657,6.711c-0.884,0.563-1.567-0.723-0.804-1.286
		c1.768-1.326,2.813-3.295,3.054-5.425C64.45,168.291,65.695,168.25,65.736,169.175z"/>
	<path style="fill:#1D1D1B;" d="M64.048,211.008c0.362-0.563,1.407-0.362,1.326,0.362c-0.241,1.849-1.688,3.295-3.576,3.657
		c-0.683,0.121-1.165-0.844-0.482-1.206C62.601,213.098,63.284,212.254,64.048,211.008z"/>
	<path style="fill:#F49AC7;" d="M55.769,160.575c8.439,1.366-0.04,10.85-2.773,13.301c-2.612,2.331-7.474,6.148-11.252,5.867
		c-1.447-0.12-2.17-0.723-2.411-1.607c3.094-7.917,8.439-14.105,15.632-18.124C55.126,160.294,55.368,160.495,55.769,160.575z"/>
	<path style="fill:#1D1D1B;" d="M47.049,189.951c0.362,2.974-1.165,7.796-3.777,9.524c-2.934,1.929-6.55-0.04-6.309-3.576
		c0.281-3.617,3.255-7.394,6.108-9.404c0.362-0.241,0.804,0,0.965,0.362C45.442,187.098,46.848,188.424,47.049,189.951z
		 M43.392,194.13c0.08-0.241,1.407-5.305-0.201-4.38c-0.322,0.201-0.683,0.161-0.965,0c-1.407,1.889-2.773,4.059-2.612,6.028
		c0.12,2.291,2.009,1.527,2.893,0.322C42.91,195.537,43.151,194.773,43.392,194.13z"/>
	<path style="fill:#F49AC7;" d="M43.191,189.75c1.607-0.924,0.281,4.139,0.201,4.38c-0.241,0.643-0.482,1.406-0.884,1.969
		c-0.884,1.206-2.773,1.969-2.893-0.322c-0.161-1.969,1.205-4.139,2.612-6.028C42.508,189.911,42.87,189.951,43.191,189.75z"/>
	<path style="fill:#F49AC7;" d="M43.111,210.566c3.014,0.121-0.804,6.55-1.447,7.515c-1.326,1.929-5.787,5.104-5.264,0.482
		c0.402-3.617,2.733-6.711,5.626-8.801C42.187,210.164,42.508,210.526,43.111,210.566z"/>
	<path style="fill:#1D1D1B;" d="M26.514,239.54c0.643-0.603,1.406,0.281,0.924,0.924c-1.246,1.567-2.652,3.014-4.019,4.501
		c-0.563,0.643-1.447-0.281-0.924-0.924C23.822,242.514,25.068,240.946,26.514,239.54z"/>
</g>
<g>
</g>
<g>
</g>
<g>
</g>
<g>
</g>
<g>
</g>
<g>
</g>
<g>
</g>
<g>
</g>
<g>
</g>
<g>
</g>
<g>
</g>
<g>
</g>
<g>
</g>
<g>
</g>
<g>
</g>
</svg>
