<?xml version="1.0" encoding="iso-8859-1"?>
<!-- Generator: Adobe Illustrator 19.0.0, SVG Export Plug-In . SVG Version: 6.00 Build 0)  -->
<svg version="1.1" id="Layer_1" xmlns="http://www.w3.org/2000/svg" xmlns:xlink="http://www.w3.org/1999/xlink" x="0px" y="0px"
	 viewBox="0 0 259.136 259.136" style="enable-background:new 0 0 259.136 259.136;" xml:space="preserve">
<g>
	<path style="fill:#EE7882;" d="M75.803,183.931c-8.359,4.822-14.186,13.985-19.691,22.142c-0.08-11.132,3.818-21.097,10.729-30.019
		C69.575,178.908,72.548,181.56,75.803,183.931z"/>
	<path style="fill:#EE7882;" d="M62.904,171.634c-9.886,3.054-18.486,10.247-24.393,18.727
		c-0.844-12.498,6.751-23.589,18.043-29.295C58.242,164.843,60.372,168.379,62.904,171.634z"/>
	<path style="fill:#EE7882;" d="M78.375,217.526c-5.586-9.645-1.728-20.816,1.206-31.184c3.255,2.049,6.671,3.858,10.207,5.425
		C83.077,198.277,80.344,208.324,78.375,217.526z"/>
	<path style="fill:#EE7882;" d="M171.606,199.443c0.804-2.371,0.322-4.782-0.643-7.073c-0.281-0.683-1.366-0.442-1.125,0.322
		c0.683,2.17,0.643,4.34,0.603,6.631C170.441,200.005,171.405,200.086,171.606,199.443z M172.128,180.877
		c4.782,12.819,2.693,26.482-5.827,36.689c1.286-9.926-0.603-20.213-6.872-28.17C163.89,186.945,168.15,184.132,172.128,180.877z
		 M169.114,202.015c0.683-3.175-0.522-6.47-2.411-9.002c-0.482-0.643-1.607-0.04-1.125,0.683c1.768,2.532,2.21,5.104,2.371,8.158
		C167.989,202.457,168.994,202.698,169.114,202.015z"/>
	<path style="fill:#EE7882;" d="M184.144,168.701c7.917,9.886,10.689,22.303,6.992,34.238c-2.893-9.323-6.992-18.003-15.512-23.147
		c-0.161-0.362-0.281-0.723-0.442-1.125c-0.04-0.121-0.12-0.161-0.201-0.241C178.277,175.452,181.291,172.157,184.144,168.701z"/>
	<path style="fill:#EE7882;" d="M193.306,154.837c8.359,6.189,21.218,18.204,20.253,29.135c-6.148-9.323-15.23-16.516-26.241-19.249
		c-0.04,0-0.08,0.04-0.161,0.04C189.448,161.628,191.458,158.293,193.306,154.837z"/>
	<path style="fill:#EE7882;" d="M246.673,70.005c-0.764,0.322-0.482,1.527,0.362,1.286c2.612-0.643,5.063-2.13,6.269-4.581
		c0.321-0.723-0.522-1.487-1.125-0.884C250.531,67.594,248.963,69.121,246.673,70.005z M243.458,74.867
		c-1.005,0-0.965,1.447,0,1.567c3.295,0.362,6.43-1.005,8.238-3.818c0.523-0.764-0.643-1.648-1.286-0.965
		C248.561,73.662,246.231,74.907,243.458,74.867z M243.538,79.247c-8.921-0.884-16.878-7.434-16.034-17.119
		c0.723-7.675,6.671-13.422,13.542-16.195c-0.964,6.59-1.607,13.261-2.09,19.892c-0.121,1.447,1.688,2.291,2.853,1.648
		c4.621-2.692,8.76-5.827,12.578-9.524c1.447,9.243,1.045,20.334-10.408,21.54C243.86,79.408,243.739,79.288,243.538,79.247z"/>
	<path style="fill:#EE7882;" d="M209.622,113.325c15.07-3.215,25.92-17.4,26.241-32.59c1.849,0.563,3.818,0.764,5.827,0.442
		c0,0.241,0,0.442,0.04,0.643c-1.607,9.042-3.456,16.878-9.283,24.393c-5.747,7.434-12.859,14.427-22.544,15.311
		C209.863,118.79,209.782,116.058,209.622,113.325z"/>
	<path style="fill:#EE7882;" d="M11.546,75.108c2.291,0.603,4.782,0.643,7.274-0.04c-4.782,11.051,0.281,36.649,15.271,35.243
		c-0.201,3.014-0.241,6.068-0.04,9.202C15.404,115.455,9.658,91.745,11.546,75.108z"/>
	<path style="fill:#EE7882;" d="M11.506,51.72c-1.688,2.492-2.009,5.305-1.125,8.158c0.241,0.804,1.487,0.482,1.286-0.362
		c-0.603-2.451-0.161-4.862,1.085-7.033C13.234,51.64,12.029,50.957,11.506,51.72z M19.061,72.416
		c-8.6,0.804-15.954-5.023-15.391-14.145c0.522-8.158,7.314-12.94,14.587-14.708c-2.009,7.796-3.215,15.431-3.777,23.549
		c-0.08,1.728,2.13,2.411,3.215,1.326c5.666-5.264,10.408-11.212,14.467-17.722c3.094,3.255,5.345,7.354,4.26,12.056
		c-1.648,7.193-8.278,10.609-15.23,8.72C20.186,71.21,19.423,71.733,19.061,72.416z M8.171,55.94
		c-1.447,2.652-1.246,5.505,0.161,8.117c0.201,0.402,0.965,0.121,0.764-0.321c-0.884-2.451-0.683-4.903,0.201-7.314
		C9.537,55.779,8.492,55.337,8.171,55.94z"/>
	<path style="fill:#EE7882;" d="M78.938,175.693c0.844,0.362,1.567-0.804,0.723-1.246c-3.697-1.969-6.791-4.702-9.122-8.198
		c-0.402-0.683-1.447-0.08-1.045,0.603C71.624,170.75,74.879,173.845,78.938,175.693z M75.401,168.54
		c1.969,2.733,4.782,4.42,8.158,4.661c0.884,0.04,1.085-1.366,0.241-1.527c-2.893-0.442-5.385-1.768-7.233-4.059
		C76.044,166.973,74.879,167.857,75.401,168.54z M117.235,150.577c-2.25-0.121-4.501,0-6.711,0.08c-0.884,0.04-0.884,1.366,0,1.366
		c2.21,0.08,4.461,0.241,6.711,0.121C118.239,152.104,118.28,150.617,117.235,150.577z M190.775,150.296
		c-13.382,26.281-38.217,43.963-68.276,44.244c-9.444,0.08-18.968-1.808-27.809-5.305c-0.241-0.121-0.482-0.201-0.763-0.241
		c-9.484-3.858-18.164-9.645-24.955-17.079c-0.08-0.523-0.482-0.965-1.005-1.206c-5.305-6.108-9.403-13.221-11.694-21.298
		C101.04,150.095,146.008,150.537,190.775,150.296z M177.192,162.793c-1.969,3.617-4.099,6.671-7.917,8.64
		c-0.482,0.241-0.12,1.085,0.402,0.884c3.938-1.527,7.796-4.742,8.76-9.042C178.598,162.593,177.594,162.11,177.192,162.793z
		 M168.391,169.424c1.808-2.451,3.617-4.862,5.184-7.475c0.402-0.683-0.603-1.487-1.085-0.844c-1.929,2.451-3.577,5.023-5.264,7.635
		C166.743,169.464,167.909,170.107,168.391,169.424z"/>
	<path style="fill:#E94B59;" d="M202.87,134.704c0.241-0.764-0.844-1.206-1.246-0.522c-1.286,2.049-2.572,3.737-4.742,4.903
		c-0.764,0.402-0.08,1.527,0.683,1.165C199.937,139.084,202.027,137.235,202.87,134.704z M189.81,132.092
		c6.068-0.523,7.314-8.76,2.25-11.694c-3.456-2.009-7.153,0.362-8.399,3.536c-0.08,0.161-0.121,0.281-0.161,0.442
		c-0.161,0.482-0.241,0.965-0.281,1.447c0,0.201,0,0.402,0,0.643c0,0.321,0.04,0.683,0.12,1.005c0.04,0.241,0.04,0.442,0.121,0.643
		C184.305,130.806,187.077,132.333,189.81,132.092z M189.609,138.441c3.094-0.241,5.626-2.411,5.747-5.586
		c0.04-0.683-1.005-0.844-1.165-0.161c-0.563,2.411-2.17,4.34-4.702,4.822C188.966,137.597,189.087,138.481,189.609,138.441z
		 M59.769,131.69c6.309,0.402,9.363-7.153,4.943-11.453c-2.09-2.09-5.345-2.411-7.876-0.924c-2.25,1.326-3.536,4.139-2.612,6.671
		C54.465,128.756,56.514,131.489,59.769,131.69z M47.754,126.827c-0.643,3.014,0.723,6.309,3.697,7.394
		c0.683,0.281,1.085-0.764,0.482-1.125c-2.291-1.286-3.818-3.335-3.416-6.068C48.598,126.546,47.834,126.305,47.754,126.827z
		 M51.772,136.231c-2.572-0.402-4.661-2.371-4.782-5.063c-0.04-0.683-1.045-0.683-1.045,0c-0.161,3.376,2.291,6.189,5.666,6.389
		C52.375,137.597,52.536,136.311,51.772,136.231z M82.354,67.393c-0.643,0.442-0.08,1.447,0.603,1.005
		c1.688-1.045,3.376-2.17,5.063-3.295c0.683-0.442,0.08-1.527-0.643-1.085C85.689,65.142,84.001,66.227,82.354,67.393z
		 M88.864,70.808c0.321-0.281-0.121-0.884-0.482-0.603c-1.768,1.326-3.456,2.773-5.184,4.179c-0.442,0.402,0.201,1.045,0.683,0.683
		C85.568,73.662,87.256,72.295,88.864,70.808z M129.009,133.699c2.813,0.04,5.626,0.08,8.439-0.04c1.005-0.08,1.005-1.567,0-1.607
		c-2.813-0.161-5.626-0.121-8.439-0.08C127.924,132.011,127.924,133.699,129.009,133.699z M134.314,136.994
		c0.844-0.362,0.522-1.688-0.402-1.407c-4.42,1.326-8.72,1.889-13.301,1.607c-0.723-0.04-0.884,1.125-0.161,1.286
		C125.111,139.285,129.893,138.843,134.314,136.994z M205.121,146.679c-49.509-3.215-100.344-3.175-149.973-0.523
		c-0.563-0.603-1.688-0.522-2.21,0.121c-2.411,0.121-4.822,0.241-7.233,0.362c-0.522,0.04-0.884,0.322-1.085,0.643
		c-6.43-25.638-9.283-50.835,6.751-74.062c15.954-23.147,44.847-33.394,71.932-34.439c26.965-1.045,55.818,5.947,70.204,30.983
		C206.969,93.192,206.166,120.518,205.121,146.679z M160.997,50.032c4.461,0.281,7.274,2.13,10.73,4.822
		c0.482,0.362,1.406-0.121,0.964-0.804c-2.411-3.617-7.475-5.305-11.694-5.023C160.354,49.068,160.354,49.992,160.997,50.032z
		 M174.138,58.271c-2.049-1.969-4.461-3.577-6.751-5.305c-0.643-0.482-1.487,0.603-0.884,1.125c2.21,1.808,4.34,3.777,6.751,5.345
		C173.937,59.918,174.781,58.833,174.138,58.271z M122.017,63.816c0.08-0.643-1.045-0.804-1.165-0.161
		c-0.482,2.612-1.246,5.103-2.371,7.474c-0.362,0.723,0.723,1.366,1.085,0.643C120.851,69.241,121.695,66.669,122.017,63.816z"/>
	<path style="fill:#1D1D1B;" d="M246.673,70.005c2.291-0.884,3.858-2.411,5.505-4.179c0.603-0.603,1.447,0.161,1.125,0.884
		c-1.206,2.451-3.657,3.938-6.269,4.581C246.191,71.532,245.909,70.326,246.673,70.005z"/>
	<path style="fill:#1D1D1B;" d="M243.458,76.434c-0.965-0.121-1.005-1.567,0-1.567c2.773,0.04,5.104-1.206,6.952-3.215
		c0.643-0.683,1.808,0.201,1.286,0.965C249.888,75.43,246.753,76.796,243.458,76.434z"/>
	<path style="fill:#1D1D1B;" d="M202.87,134.704c-0.844,2.532-2.934,4.38-5.305,5.546c-0.764,0.362-1.447-0.764-0.683-1.165
		c2.17-1.165,3.456-2.853,4.742-4.903C202.027,133.498,203.111,133.94,202.87,134.704z"/>
	<path style="fill:#1D1D1B;" d="M192.06,120.398c5.063,2.934,3.818,11.172-2.25,11.694c-2.733,0.241-5.505-1.286-6.349-3.978
		c-0.08-0.201-0.08-0.402-0.121-0.643c-0.08-0.322-0.12-0.683-0.12-1.005c0-0.241,0-0.442,0-0.643
		c0.04-0.482,0.12-0.965,0.281-1.447c0.04-0.161,0.08-0.281,0.161-0.442C184.907,120.759,188.604,118.388,192.06,120.398z"/>
	<path style="fill:#1D1D1B;" d="M195.356,132.855c-0.121,3.175-2.652,5.345-5.747,5.586c-0.522,0.04-0.643-0.844-0.121-0.924
		c2.532-0.482,4.139-2.411,4.702-4.822C194.351,132.011,195.396,132.172,195.356,132.855z"/>
	<path style="fill:#1D1D1B;" d="M170.963,192.37c0.964,2.29,1.447,4.702,0.643,7.073c-0.201,0.643-1.165,0.563-1.165-0.12
		c0.04-2.291,0.08-4.461-0.603-6.631C169.597,191.928,170.682,191.687,170.963,192.37z"/>
	<path style="fill:#1D1D1B;" d="M169.275,171.433c3.818-1.969,5.947-5.023,7.917-8.64c0.402-0.683,1.407-0.201,1.246,0.482
		c-0.965,4.3-4.822,7.515-8.76,9.042C169.155,172.518,168.793,171.674,169.275,171.433z"/>
	<path style="fill:#1D1D1B;" d="M167.386,52.966c2.291,1.728,4.702,3.335,6.751,5.305c0.643,0.563-0.201,1.648-0.884,1.165
		c-2.411-1.567-4.541-3.536-6.751-5.345C165.9,53.569,166.743,52.484,167.386,52.966z"/>
	<path style="fill:#1D1D1B;" d="M173.575,161.95c-1.567,2.612-3.376,5.023-5.184,7.475c-0.482,0.683-1.648,0.04-1.165-0.683
		c1.688-2.612,3.335-5.184,5.264-7.635C172.972,160.463,173.977,161.266,173.575,161.95z"/>
	<path style="fill:#1D1D1B;" d="M166.703,193.013c1.889,2.532,3.094,5.827,2.411,9.002c-0.121,0.683-1.125,0.442-1.165-0.161
		c-0.161-3.054-0.603-5.626-2.371-8.158C165.096,192.973,166.221,192.37,166.703,193.013z"/>
	<path style="fill:#1D1D1B;" d="M171.727,54.855c-3.456-2.692-6.269-4.541-10.73-4.822c-0.643-0.04-0.643-0.964,0-1.005
		c4.219-0.281,9.283,1.407,11.694,5.023C173.133,54.734,172.209,55.216,171.727,54.855z"/>
	<path style="fill:#1D1D1B;" d="M137.448,133.659c-2.813,0.121-5.626,0.08-8.439,0.04c-1.085,0-1.085-1.688,0-1.728
		c2.813-0.04,5.626-0.08,8.439,0.08C138.453,132.092,138.453,133.578,137.448,133.659z"/>
	<path style="fill:#1D1D1B;" d="M133.912,135.588c0.924-0.281,1.246,1.045,0.402,1.407c-4.42,1.848-9.202,2.291-13.864,1.487
		c-0.723-0.161-0.563-1.326,0.161-1.286C125.191,137.476,129.491,136.914,133.912,135.588z"/>
	<path style="fill:#1D1D1B;" d="M120.851,63.655c0.121-0.643,1.246-0.482,1.165,0.161c-0.322,2.853-1.165,5.425-2.451,7.957
		c-0.362,0.723-1.447,0.08-1.085-0.643C119.606,68.759,120.369,66.267,120.851,63.655z"/>
	<path style="fill:#1D1D1B;" d="M117.235,150.577c1.045,0.04,1.005,1.527,0,1.567c-2.25,0.121-4.501-0.04-6.711-0.121
		c-0.884,0-0.884-1.326,0-1.366C112.734,150.577,114.984,150.456,117.235,150.577z"/>
	<path style="fill:#1D1D1B;" d="M83.881,75.068c-0.482,0.362-1.125-0.281-0.683-0.683c1.728-1.407,3.416-2.853,5.184-4.179
		c0.362-0.281,0.804,0.322,0.482,0.603C87.256,72.295,85.568,73.662,83.881,75.068z"/>
	<path style="fill:#1D1D1B;" d="M82.354,67.393c1.648-1.165,3.335-2.25,5.023-3.376c0.723-0.442,1.326,0.643,0.643,1.085
		c-1.688,1.125-3.376,2.25-5.063,3.295C82.273,68.839,81.711,67.835,82.354,67.393z"/>
	<path style="fill:#1D1D1B;" d="M83.559,173.202c-3.376-0.241-6.189-1.929-8.158-4.661c-0.522-0.683,0.643-1.567,1.165-0.924
		c1.848,2.291,4.34,3.617,7.233,4.059C84.644,171.835,84.443,173.242,83.559,173.202z"/>
	<path style="fill:#1D1D1B;" d="M70.539,166.249c2.331,3.496,5.425,6.229,9.122,8.198c0.844,0.442,0.12,1.607-0.723,1.246
		c-4.059-1.848-7.314-4.943-9.444-8.841C69.092,166.169,70.137,165.566,70.539,166.249z"/>
	<path style="fill:#1D1D1B;" d="M64.712,120.237c4.42,4.3,1.366,11.855-4.943,11.453c-3.255-0.201-5.305-2.934-5.546-5.706
		c-0.924-2.532,0.362-5.345,2.612-6.671C59.367,117.826,62.622,118.147,64.712,120.237z"/>
	<path style="fill:#1D1D1B;" d="M51.451,134.221c-2.974-1.085-4.34-4.38-3.697-7.394c0.08-0.522,0.844-0.281,0.764,0.201
		c-0.402,2.733,1.125,4.782,3.416,6.068C52.536,133.458,52.134,134.503,51.451,134.221z"/>
	<path style="fill:#1D1D1B;" d="M46.99,131.167c0.121,2.692,2.21,4.661,4.782,5.063c0.764,0.08,0.603,1.366-0.161,1.326
		c-3.376-0.201-5.827-3.014-5.666-6.389C45.945,130.484,46.95,130.484,46.99,131.167z"/>
	<path style="fill:#EE7882;" d="M10.381,59.878c-0.884-2.853-0.563-5.666,1.125-8.158c0.522-0.764,1.728-0.08,1.246,0.764
		c-1.246,2.17-1.688,4.581-1.085,7.033C11.868,60.36,10.622,60.682,10.381,59.878z"/>
	<path style="fill:#1D1D1B;" d="M8.331,64.057c-1.406-2.612-1.607-5.465-0.161-8.117c0.321-0.603,1.366-0.161,1.125,0.482
		c-0.884,2.411-1.085,4.863-0.201,7.314C9.296,64.178,8.532,64.459,8.331,64.057z"/>
	<path style="fill:#1D1D1B;" d="M213.56,183.971c0.965-10.93-11.895-22.946-20.253-29.135c-1.849,3.456-3.858,6.791-6.148,9.926
		c0.08,0,0.12-0.04,0.161-0.04C198.329,167.455,207.411,174.648,213.56,183.971z M227.504,62.128
		c-0.844,9.685,7.113,16.235,16.034,17.119c0.201,0.04,0.321,0.161,0.442,0.241c11.453-1.206,11.855-12.297,10.408-21.54
		c-3.818,3.697-7.957,6.832-12.578,9.524c-1.165,0.643-2.974-0.201-2.853-1.648c0.482-6.631,1.125-13.302,2.09-19.892
		C234.175,48.706,228.227,54.453,227.504,62.128z M235.863,80.734c-0.321,15.19-11.172,29.376-26.241,32.59
		c0.161,2.733,0.241,5.465,0.281,8.198c9.685-0.884,16.798-7.876,22.544-15.311c5.827-7.515,7.675-15.351,9.283-24.393
		c-0.04-0.201-0.04-0.402-0.04-0.643C239.68,81.498,237.711,81.297,235.863,80.734z M11.546,75.108
		c-1.889,16.637,3.858,40.346,22.504,44.405c-0.201-3.134-0.161-6.189,0.04-9.202c-14.989,1.407-20.053-24.192-15.271-35.243
		C16.328,75.751,13.837,75.711,11.546,75.108z M3.67,58.271c-0.563,9.122,6.791,14.949,15.391,14.145
		c0.362-0.683,1.125-1.206,2.13-0.924c6.952,1.889,13.583-1.527,15.23-8.72c1.085-4.702-1.165-8.801-4.26-12.056
		c-4.059,6.51-8.801,12.458-14.467,17.722c-1.085,1.085-3.295,0.402-3.215-1.326c0.563-8.117,1.768-15.753,3.777-23.549
		C10.984,45.331,4.192,50.113,3.67,58.271z M38.511,190.361c5.907-8.479,14.507-15.672,24.393-18.727
		c-2.532-3.255-4.662-6.791-6.349-10.569C45.262,166.772,37.667,177.863,38.511,190.361z M56.112,206.073
		c5.505-8.158,11.332-17.32,19.691-22.142c-3.255-2.371-6.229-5.023-8.962-7.876C59.93,184.976,56.032,194.942,56.112,206.073z
		 M79.581,186.342c-2.933,10.368-6.791,21.54-1.206,31.184c1.969-9.202,4.702-19.249,11.413-25.759
		C86.252,190.2,82.836,188.392,79.581,186.342z M174.982,178.426c0.08,0.08,0.161,0.121,0.201,0.241
		c0.161,0.402,0.281,0.764,0.442,1.125c8.519,5.144,12.618,13.824,15.512,23.147c3.697-11.935,0.924-24.353-6.992-34.238
		C181.291,172.157,178.277,175.452,174.982,178.426z M55.148,146.157c49.629-2.652,100.464-2.692,149.973,0.523
		c1.045-26.161,1.848-53.487-11.614-76.915c-14.386-25.036-43.24-32.028-70.204-30.983C96.218,39.825,67.324,50.073,51.37,73.22
		c-16.034,23.227-13.181,48.424-6.751,74.062c0.201-0.321,0.563-0.603,1.085-0.643c2.411-0.121,4.822-0.241,7.233-0.362
		C53.46,145.634,54.585,145.554,55.148,146.157z M122.499,194.54c30.059-0.281,54.894-17.963,68.276-44.244
		c-44.767,0.241-89.735-0.201-134.502-0.884c2.291,8.077,6.389,15.19,11.694,21.298c0.522,0.241,0.924,0.683,1.005,1.206
		c6.791,7.434,15.471,13.221,24.955,17.079c0.281,0.04,0.522,0.12,0.763,0.241C103.531,192.732,113.055,194.621,122.499,194.54z
		 M176.75,183.007c4.501,14.909-0.121,31.224-12.136,41.552c-1.366,1.165-3.617,0.08-3.094-1.808
		c3.215-11.654,0.924-21.74-4.099-32.309c-13.141,6.671-28.17,9.725-43.762,7.917c-6.59-0.723-13.301-2.411-19.771-4.903
		c-8.278,6.55-10.529,19.611-12.618,29.336c-0.322,1.406-2.371,1.969-3.295,0.884c-8.921-10.408-6.912-23.951-1.849-35.604
		c-8.439,5.546-14.266,16.597-19.972,24.352c-1.125,1.527-3.215,0.924-3.416-0.964c-1.487-12.819,2.09-25.96,10.649-35.604
		c-10.288,4.581-18.445,10.569-24.312,21.017c-0.844,1.447-3.215,1.165-3.617-0.482c-3.777-15.391,4.421-33.073,20.053-37.815
		c-1.085-2.934-1.969-5.988-2.451-9.202c-2.451-0.04-4.903-0.08-7.354-0.121c-0.362,0-0.603-0.12-0.804-0.281
		c-0.08,1.085-1.607,1.728-2.21,0.603c-4.742-9.202-7.394-18.365-8.359-27.286C14.239,122.126,4.514,90.781,8.814,74.063
		c-4.943-2.492-8.559-7.756-8.801-13.784c-0.402-10.93,8.519-18.927,18.807-20.213c0.362-0.04,0.643,0.08,0.844,0.201
		c0.563,0,1.205,0.402,1.085,1.165c-0.924,6.831-1.567,13.784-2.09,20.696c4.38-4.702,8.238-9.765,11.533-15.391
		c0.643-1.085,2.05-1.165,2.974-0.362c5.947,5.385,9.604,13.301,5.706,21.057c-3.295,6.631-10.207,9.323-17.159,8.077
		c-1.326,11.051-2.009,30.3,12.538,32.751c3.657-37.775,38.297-68.436,79.045-73.218c27.688-3.255,59.796,1.206,78.402,24.071
		c12.096,14.869,16.476,33.153,17.762,51.84c13.422-5.385,22.303-17.4,22.745-31.907c-4.501-2.813-7.796-7.917-8.439-13.261
		c-1.326-11.172,7.555-20.294,17.561-23.388c0.764-0.241,1.326,0.04,1.648,0.482c0.241,0.201,0.442,0.442,0.442,0.764
		c0.121,6.229-0.121,12.417-0.482,18.646c4.139-2.773,7.876-5.907,11.332-9.644c0.924-1.005,2.934-0.522,3.215,0.884
		c1.527,7.394,3.215,15.914-1.045,22.745c-2.572,4.099-6.751,7.032-11.453,6.872c0.281,10.73-5.224,21.057-12.337,28.813
		c-5.465,5.948-13.864,14.266-22.705,11.935c0.08,7.756-0.201,15.431-0.522,22.866c0,0.563-0.241,1.005-0.563,1.326
		c0.281,0.964-0.241,2.13-1.567,2.17c-4.099,0.04-8.198,0-12.297,0.04c0.08,0.281,0.12,0.603,0.08,0.964
		c11.292,8.238,27.367,23.991,20.856,38.659c-0.563,1.326-2.692,1.165-3.335,0c-5.666-10.73-14.346-17.682-25.196-22.504
		c9.685,11.654,11.332,27.808,4.983,41.552c-0.603,1.366-2.652,0.884-3.014-0.362C186.796,199.121,183.983,189.517,176.75,183.007z
		 M166.301,217.567c8.519-10.207,10.609-23.87,5.827-36.689c-3.978,3.255-8.238,6.068-12.699,8.519
		C165.699,197.353,167.587,207.641,166.301,217.567z"/>
</g>
<g>
</g>
<g>
</g>
<g>
</g>
<g>
</g>
<g>
</g>
<g>
</g>
<g>
</g>
<g>
</g>
<g>
</g>
<g>
</g>
<g>
</g>
<g>
</g>
<g>
</g>
<g>
</g>
<g>
</g>
</svg>
